<svg width="156" height="155" viewBox="0 0 156 155" fill="none" xmlns="http://www.w3.org/2000/svg">
<path d="M155.537 11.4052V128.29C155.44 128.57 155.318 128.851 155.251 129.136C153.981 134.645 149.96 138.567 144.372 139.189C140.989 139.567 137.54 139.368 134.121 139.424C133.544 139.434 132.968 139.424 132.304 139.424C132.304 140.077 132.279 140.475 132.304 140.873C132.856 148.585 126.773 155.113 118.129 154.935C105.699 154.675 93.2583 154.869 80.8229 154.869C66.275 154.869 51.7219 154.889 37.174 154.858C30.5609 154.848 25.3102 150.462 24.2233 144.045C23.9732 142.581 24.0396 141.066 23.9579 139.429C20.8197 139.429 17.7581 139.429 14.7016 139.429C6.25653 139.419 0.832313 133.997 0.832313 125.551C0.832313 106.026 0.832313 86.5007 0.832313 66.9758C0.832313 49.1595 0.817005 31.3484 0.842519 13.5322C0.847622 7.85015 3.48064 3.7493 8.6191 1.31124C9.59882 0.847086 10.6755 0.586958 11.7114 0.229919C56.0287 0.229919 100.346 0.229919 144.663 0.229919C145.123 0.388037 145.577 0.561455 146.046 0.69917C150.322 1.95901 153.231 4.6878 154.787 8.84985C155.098 9.68125 155.292 10.5534 155.542 11.4052H155.537ZM29.2138 100.747C29.2138 114.232 29.2138 127.718 29.2138 141.204C29.2138 146.595 32.3468 149.722 37.7455 149.722C64.6778 149.722 91.6152 149.722 118.547 149.722C124.048 149.722 127.156 146.621 127.156 141.128C127.156 114.207 127.156 87.2811 127.156 60.3603C127.156 54.8262 124.115 51.8016 118.547 51.8016C91.6152 51.8016 64.6778 51.8016 37.7455 51.8016C32.2856 51.8016 29.2138 54.8619 29.2138 60.2838C29.2138 73.7697 29.2138 87.2556 29.2138 100.741V100.747ZM132.31 134.278C135.57 134.278 138.632 134.278 141.693 134.278C147.255 134.267 150.389 131.136 150.389 125.576C150.389 98.1452 150.389 70.7145 150.389 43.2837C150.389 42.743 150.389 42.2024 150.389 41.6005H5.98098C5.98098 42.2126 5.98098 42.7073 5.98098 43.2021C5.98098 70.6839 5.98098 98.1656 5.98098 125.647C5.98098 126.101 5.97077 126.555 6.00139 127.004C6.23101 130.376 8.64461 133.63 11.9053 133.936C15.8752 134.308 19.9013 134.023 24.06 134.023C24.06 133.441 24.06 132.804 24.06 132.161C24.06 108.351 24.06 84.5472 24.0702 60.7378C24.0702 59.5851 24.06 58.4068 24.2641 57.2796C25.402 51.1181 30.3159 46.7164 36.6025 46.7011C64.3461 46.6195 92.0897 46.6654 119.833 46.6807C120.583 46.6807 121.349 46.7623 122.079 46.9204C128.329 48.2924 132.299 53.3675 132.299 60.0543C132.315 84.0626 132.304 108.071 132.304 132.079C132.304 132.727 132.304 133.38 132.304 134.278H132.31ZM6.61372 10.5228C7.34851 10.5228 7.95064 10.5228 8.55276 10.5228C21.2892 10.5228 34.0256 10.5228 46.7621 10.5228C53.7069 10.5228 60.6568 10.4973 67.6017 10.533C72.1788 10.5534 75.3987 13.6903 75.5773 18.2451C75.6334 19.6528 75.5875 21.0606 75.5977 22.4734C75.613 25.2022 76.3835 25.9775 79.1033 25.9775C102.311 25.9775 125.518 25.9775 148.73 25.9775C149.261 25.9775 149.786 25.9265 150.394 25.901C150.394 21.9124 150.394 18.0921 150.394 14.2717C150.394 8.39081 147.368 5.37638 141.454 5.37638C99.2642 5.37638 57.0798 5.37638 14.8904 5.37638C14.3852 5.37638 13.8851 5.36618 13.38 5.39168C10.2826 5.5549 7.60365 7.53901 6.61882 10.5228H6.61372ZM6.05242 36.1684H150.286V31.1393H148.25C125.441 31.1393 102.627 31.1393 79.8176 31.1393C79.1135 31.1393 78.4042 31.1444 77.7051 31.1036C73.9954 30.8791 71.0205 28.1963 70.5817 24.5035C70.3776 22.7642 70.449 20.9892 70.4286 19.2295C70.398 16.4497 69.6275 15.6744 66.8005 15.6744C47.0631 15.6744 27.3206 15.6744 7.58324 15.6744C7.09338 15.6744 6.60351 15.7203 6.05242 15.7458V36.1633V36.1684Z" fill="black"/>
<path d="M40.4604 84.0167C37.3477 83.0017 35.3219 81.1553 34.6177 78.0644C33.6125 73.6371 36.6486 69.271 41.1595 68.7763C46.2112 68.2254 51.268 67.7205 56.335 67.3124C61.4428 66.9044 64.7239 69.6689 65.2597 74.7388C65.7598 79.4925 66.1833 84.2514 66.6527 89.0051C66.9997 92.5398 65.8261 95.3604 62.6675 97.1354C59.713 98.7981 56.5493 98.3136 53.5897 95.8857C53.4469 95.7684 53.2836 95.6715 52.9723 95.4573C52.0181 100.277 52.3038 104.852 53.8959 109.346C57.5188 119.547 66.8518 126.209 77.8584 126.494C81.8079 126.596 84.8491 128.871 85.6911 132.355C86.533 135.833 84.9869 139.45 81.7977 141.021C80.7108 141.556 79.4045 141.888 78.1951 141.908C56.7534 142.24 38.1488 124.76 37.0262 103.378C36.6741 96.6763 37.7814 90.27 40.4655 84.0116L40.4604 84.0167ZM42.1137 102.843C42.476 113.478 47.7114 123.582 58.2281 130.768C64.1065 134.788 70.7043 136.746 77.8431 136.787C79.9658 136.797 81.267 135.155 80.5679 133.339C80.0628 132.023 78.9402 131.783 77.6594 131.605C74.6334 131.192 71.531 130.952 68.6275 130.07C50.3546 124.515 41.6544 102.542 51.0282 85.909C51.6813 84.7461 52.5794 84.0014 53.952 84.2769C55.3859 84.5625 56.0033 85.603 56.1156 87.0057C56.2023 88.0564 56.3095 89.1071 56.4167 90.1629C56.5901 91.9226 57.7076 93.0345 59.1721 92.9172C60.7029 92.7948 61.698 91.586 61.5398 89.8365C61.0959 84.8277 60.6111 79.819 60.0906 74.8153C59.9171 73.1526 58.9119 72.2906 57.2127 72.4334C52.0997 72.8669 46.9868 73.3617 41.884 73.8921C40.4247 74.0452 39.4755 75.2642 39.5827 76.5852C39.695 77.9879 40.8635 79.0029 42.3892 78.9723C43.1444 78.957 43.8945 78.7785 44.6446 78.7989C46.6653 78.8601 47.793 80.6555 47.0174 82.5121C46.8439 82.9303 46.6092 83.318 46.3898 83.7158C43.522 89.051 42.1086 94.7483 42.1188 102.848L42.1137 102.843Z" fill="black"/>
<path d="M115.95 117.487C118.9 118.43 120.951 120.2 121.696 123.209C122.864 127.938 119.634 132.324 114.659 132.803C109.597 133.293 104.54 133.767 99.4785 134.232C95.478 134.599 91.6509 131.641 91.207 127.688C90.6202 122.439 90.1354 117.175 89.7017 111.912C89.4159 108.459 90.8345 105.76 93.9523 104.245C97.0394 102.746 100.019 103.215 102.652 105.49C102.831 105.643 103.03 105.776 103.387 106.041C104.229 101.986 104.132 98.1248 103.132 94.2943C100.295 83.4454 91.0386 75.8201 79.8483 75.0601C79.1441 75.0142 78.4399 74.9887 77.7358 74.9275C73.4494 74.5755 70.2755 71.1174 70.4541 67.0012C70.648 62.6658 74.0873 59.4575 78.5114 59.4983C97.4885 59.6615 114.042 72.8618 118.323 91.3105C120.288 99.7825 119.655 108.086 116.42 116.181C116.256 116.589 116.124 117.007 115.955 117.487H115.95ZM114.251 100.726C114.21 81.0379 98.6774 65.2109 78.8584 64.6703C76.9295 64.6193 75.7406 65.5068 75.6436 67.0777C75.5467 68.664 76.608 69.6331 78.5318 69.8269C80.7821 70.0565 83.063 70.1738 85.2572 70.6685C105.041 75.1417 115.195 97.8596 105.377 115.533C104.688 116.772 103.77 117.466 102.321 117.155C100.923 116.854 100.402 115.819 100.275 114.508C100.173 113.457 100.076 112.406 99.9684 111.356C99.7745 109.448 98.7284 108.459 97.0853 108.622C95.5392 108.775 94.6666 109.917 94.835 111.769C95.279 116.676 95.7484 121.587 96.2536 126.489C96.4577 128.453 97.565 129.248 99.5704 129.049C101.275 128.881 102.979 128.738 104.683 128.575C107.888 128.274 111.097 127.989 114.302 127.652C115.853 127.489 116.869 126.316 116.777 124.933C116.685 123.515 115.567 122.536 114.006 122.546C113.2 122.551 112.399 122.684 111.592 122.658C110.046 122.618 108.837 121.317 109.107 119.884C109.25 119.119 109.669 118.384 110.041 117.68C112.848 112.376 114.261 106.729 114.251 100.726Z" fill="black"/>
<path d="M140.071 15.6743C140.081 17.0566 138.856 18.2807 137.479 18.2705C136.07 18.2603 134.932 17.0719 134.958 15.6386C134.983 14.2309 136.024 13.1904 137.438 13.1649C138.877 13.1394 140.066 14.2666 140.076 15.6794L140.071 15.6743Z" fill="black"/>
<path d="M127.192 18.2706C125.783 18.2808 124.635 17.1077 124.645 15.6693C124.655 14.2565 125.686 13.2006 127.089 13.1598C128.528 13.119 129.717 14.2259 129.748 15.6438C129.779 17.0261 128.579 18.2604 127.197 18.2706H127.192Z" fill="black"/>
<path d="M116.823 13.1649C118.282 13.1496 119.405 14.2564 119.4 15.6999C119.4 17.128 118.221 18.296 116.818 18.2705C115.471 18.245 114.348 17.1229 114.307 15.7662C114.266 14.3227 115.369 13.1751 116.823 13.1598V13.1649Z" fill="black"/>
<path d="M30.5252 23.4476C35.0565 23.4476 39.5877 23.4374 44.1189 23.4476C46.0529 23.4476 47.2061 24.4116 47.2265 25.9673C47.2469 27.5331 46.0682 28.5838 44.1853 28.5889C35.0718 28.6042 25.9583 28.6042 16.8448 28.5889C14.9006 28.5889 13.7831 27.63 13.7678 26.0336C13.7474 24.3708 14.8547 23.4527 16.9315 23.4476C21.4628 23.4374 25.994 23.4476 30.5252 23.4476Z" fill="black"/>
<path d="M63.9278 26.0081C65.4331 27.9106 65.5964 29.2215 64.5146 30.3334C63.4277 31.4504 62.152 31.3076 60.1263 29.8386C58.0443 31.3841 56.7227 31.5269 55.6307 30.3232C54.5388 29.1195 54.7378 27.8749 56.3196 26.0999C54.8092 23.7486 54.7071 22.5449 55.9318 21.5043C57.0952 20.5199 58.2536 20.7036 60.0803 22.1776C62.3051 20.627 63.443 20.4944 64.5605 21.6676C65.6219 22.7846 65.4484 24.0801 63.9278 26.0081Z" fill="black"/>
</svg>
