<svg width="241" height="209" viewBox="0 0 241 209" fill="none" xmlns="http://www.w3.org/2000/svg">
<path d="M156.295 107.363C156.295 107.363 148.505 127.483 170.655 139.133C170.655 139.133 169.315 154.113 175.105 161.673C180.895 169.233 186.735 170.013 190.705 165.853C190.705 165.853 193.445 171.883 197.865 172.153C202.285 172.423 204.065 167.833 204.065 167.833C204.065 167.833 207.215 174.353 213.405 176.003C219.595 177.653 220.145 169.243 220.145 169.243C220.145 169.243 222.775 172.443 227.895 172.293C233.005 172.143 228.055 168.343 230.235 154.043C232.415 139.743 240.375 127.323 228.205 117.823C228.205 117.823 235.255 118.923 238.765 115.083C242.285 111.253 238.555 104.383 231.405 104.473C231.405 104.473 237.355 99.5326 235.065 95.5526C232.775 91.5726 223.055 91.1726 215.745 96.8626C215.745 96.8626 221.205 86.8626 217.955 85.3526C214.695 83.8326 211.285 88.8526 197.945 96.5726C184.605 104.293 166.105 111.313 156.285 107.363H156.295Z" fill="white"/>
<path d="M228.215 117.813C228.215 117.813 235.265 118.913 238.775 115.073C242.295 111.243 238.565 104.373 231.415 104.463C231.415 104.463 237.365 99.5226 235.075 95.5426C232.785 91.5626 223.065 91.1626 215.755 96.8526C215.755 96.8526 221.215 86.8526 217.965 85.3426C216.585 84.7026 215.185 85.2326 213.015 86.6326C214.285 87.1626 215.615 87.9526 216.125 89.0926C217.225 91.5426 212.185 100.673 212.185 100.673C212.185 100.673 217.025 99.1526 221.725 96.1426C226.425 93.1326 231.345 93.9226 230.465 98.0726C229.595 102.223 225.455 105.033 225.455 105.033C234.305 104.503 238.005 109.683 236.295 113.163C234.585 116.643 225.255 116.303 225.255 116.303C234.085 125.163 231.475 136.423 228.155 147.653C224.835 158.883 228.115 169.373 224.925 169.123C221.735 168.873 213.495 156.983 213.495 156.983C213.495 156.983 214.805 165.353 216.325 168.283C217.845 171.203 214.115 175.053 208.835 169.883C203.555 164.713 198.735 148.633 198.735 148.633C198.735 148.633 198.225 160.133 199.825 163.813C201.425 167.493 199.125 171.133 194.265 165.943C189.405 160.743 184.685 142.893 184.685 142.893C184.115 148.263 184.035 155.543 185.265 160.293C186.495 165.053 183.855 166.893 177.405 158.223C170.965 149.553 171.435 135.603 171.435 135.603C163.025 132.663 157.755 123.333 155.005 117.153C155.395 123.903 158.565 132.773 170.645 139.123C170.645 139.123 169.305 154.103 175.095 161.663C180.885 169.223 186.725 170.003 190.695 165.843C190.695 165.843 193.435 171.873 197.855 172.143C202.275 172.413 204.055 167.823 204.055 167.823C204.055 167.823 207.205 174.343 213.395 175.993C219.585 177.643 220.135 169.233 220.135 169.233C220.135 169.233 222.765 172.433 227.885 172.283C232.995 172.133 228.045 168.333 230.225 154.033C232.405 139.733 240.365 127.313 228.195 117.813H228.215Z" fill="#00D100"/>
<path d="M155.505 117.123C156.105 121.143 157.275 125.093 159.415 128.573C162.185 133.063 166.305 136.413 170.925 138.883C171.035 138.943 171.155 139.043 171.145 139.183C170.285 148.933 171.835 161.643 181.305 166.893C184.455 168.643 187.755 168.233 190.285 165.653C190.515 165.413 191.055 165.513 191.185 165.813C192.275 168.173 194.285 170.913 196.885 171.653C199.795 172.493 202.545 170.323 203.585 167.703C203.735 167.333 204.415 167.513 204.545 167.783C206.325 171.433 210.295 175.553 214.535 175.873C218.005 176.133 219.445 172.023 219.635 169.193C219.665 168.773 220.395 168.893 220.575 169.113C221.465 170.183 222.845 170.953 224.135 171.403C225.345 171.833 226.655 172.023 227.935 171.953C228.375 171.933 228.945 171.913 229.305 171.633C229.945 171.143 229.805 170.113 229.755 169.403C229.635 167.843 229.375 166.293 229.255 164.723C228.835 159.213 229.565 153.743 230.835 148.383C232.105 143.023 233.765 138.203 234.205 132.943C234.425 130.363 234.265 127.743 233.385 125.283C232.315 122.313 230.265 119.943 227.825 118.003C227.485 117.733 227.935 117.433 228.225 117.483C231.795 118.023 236.965 117.473 238.955 114.033C240.055 112.143 239.645 109.823 238.415 108.093C236.795 105.803 234.105 104.793 231.375 104.783C231.155 104.783 230.705 104.503 230.985 104.263C233.655 102.033 237.275 97.0526 233.315 94.2926C231.185 92.8026 228.225 92.7126 225.745 93.0326C222.245 93.4726 218.945 94.9326 216.155 97.0626C215.935 97.2326 215.025 97.1826 215.265 96.7326C215.875 95.6026 216.425 94.4326 216.925 93.2526C217.705 91.4026 218.655 89.1826 218.475 87.1226C218.105 83.1126 212.695 87.3026 211.355 88.2426C200.085 96.1826 188.115 103.323 174.715 107.003C168.805 108.633 161.905 109.913 155.995 107.613C155.385 107.373 156.125 106.933 156.545 107.093C162.445 109.393 169.535 107.793 175.375 106.083C182.715 103.933 189.775 100.713 196.435 96.9626C202.025 93.8126 207.105 90.0126 212.455 86.5026C214.105 85.4226 217.875 83.3226 219.195 86.0726C220.085 87.9326 218.985 90.6126 218.315 92.3726C217.715 93.9526 217.015 95.5026 216.205 96.9826L215.315 96.6526C218.295 94.3826 221.795 92.8426 225.525 92.3726C228.235 92.0326 231.335 92.1926 233.715 93.6726C238.385 96.5826 234.925 102.053 231.805 104.663L231.415 104.143C234.225 104.143 237.025 105.143 238.885 107.323C240.405 109.103 241.115 111.653 240.105 113.853C238.215 118.003 232.135 118.733 228.155 118.123L228.555 117.603C232.865 121.023 235.325 125.593 235.275 131.133C235.235 136.913 233.235 142.533 231.905 148.103C230.575 153.673 229.755 159.773 230.315 165.713C230.455 167.223 230.795 168.783 230.775 170.303C230.755 171.143 230.525 171.883 229.725 172.263C227.935 173.123 225.255 172.533 223.515 171.883C222.105 171.353 220.655 170.513 219.675 169.343L220.615 169.263C220.385 172.593 218.605 176.663 214.715 176.523C209.955 176.343 205.535 171.933 203.545 167.863L204.505 167.943C203.335 170.883 200.285 172.963 197.095 172.363C193.905 171.763 191.475 168.683 190.185 165.873L191.085 166.033C187.755 169.423 183.215 169.203 179.465 166.593C174.795 163.333 172.085 158.373 170.945 152.903C170.095 148.833 169.865 144.613 170.045 140.473C170.055 140.153 170.225 139.543 170.115 139.233C170.025 138.973 168.425 138.293 167.975 138.013C165.365 136.393 162.955 134.443 160.945 132.123C157.285 127.903 155.315 122.673 154.505 117.193C154.435 116.713 155.425 116.703 155.485 117.103L155.505 117.123Z" fill="black"/>
<path d="M199.695 106.423C200.365 105.273 201.225 104.103 202.255 103.253C203.055 102.603 204.795 101.743 205.555 102.923C206.215 103.943 205.515 105.673 205.185 106.693C204.855 107.713 204.425 108.763 203.945 109.753L203.145 109.363C204.675 108.313 206.275 107.353 207.885 106.433C210.475 104.963 213.285 103.433 216.235 102.853C217.835 102.543 220.665 102.663 220.445 104.983C220.345 106.053 219.655 107.043 219.025 107.873C218.125 109.063 217.075 110.143 215.985 111.163C214.345 112.703 212.605 114.163 210.795 115.503L210.535 115.003C212.345 115.463 214.225 116.083 215.835 117.053C216.555 117.483 217.525 118.143 217.605 119.073C217.705 120.263 216.275 120.983 215.385 121.413C215.015 121.593 214.185 121.153 214.725 120.893C215.465 120.543 216.925 119.863 216.555 118.803C216.275 118.003 215.205 117.493 214.505 117.143C213.155 116.473 211.685 115.983 210.225 115.613C210.045 115.573 209.715 115.303 209.965 115.113C211.285 114.143 212.555 113.103 213.785 112.023C215.705 110.343 217.865 108.463 219.035 106.153C219.385 105.453 219.745 104.443 219.105 103.793C218.465 103.143 217.315 103.343 216.525 103.503C213.765 104.063 211.135 105.503 208.705 106.883C207.035 107.823 205.385 108.823 203.795 109.903C203.565 110.063 202.805 109.903 202.995 109.513C203.795 107.833 204.755 105.823 204.785 103.943C204.785 103.533 204.785 103.053 204.315 103.033C203.645 103.003 202.905 103.793 202.485 104.233C201.775 104.963 201.165 105.803 200.645 106.683C200.435 107.043 199.465 106.833 199.695 106.423Z" fill="black"/>
<path d="M177.525 120.203C177.725 123.103 178.005 126.763 179.585 129.273C181.655 132.573 184.405 125.283 184.865 123.723C184.985 123.303 185.825 123.353 185.865 123.813C186.215 128.163 186.965 132.673 188.515 136.763C189.185 138.523 190.695 142.213 193.165 141.813C195.425 141.453 196.005 137.693 196.285 135.923C196.585 134.033 196.725 132.093 196.685 130.183C196.685 129.773 197.605 129.823 197.675 130.183C198.395 133.843 199.765 137.813 202.165 140.703C203.235 141.993 205.795 144.333 207.165 142.203C208.135 140.693 208.155 138.543 208.175 136.813C208.175 135.433 208.115 134.043 207.945 132.673C207.885 132.193 208.865 132.183 208.925 132.583C209.105 133.943 209.175 135.323 209.175 136.693C209.175 138.603 209.155 141.033 207.985 142.653C206.815 144.273 204.895 143.823 203.445 142.913C201.045 141.403 199.585 138.693 198.525 136.143C197.745 134.263 197.105 132.273 196.705 130.273H197.695C197.735 132.183 197.595 134.123 197.295 136.013C196.965 138.123 196.365 141.373 194.095 142.273C191.825 143.173 189.815 141.243 188.765 139.443C187.135 136.663 186.385 133.373 185.785 130.243C185.375 128.093 185.055 125.903 184.875 123.723L185.875 123.813C185.255 125.933 182.865 132.783 179.555 130.463C177.945 129.333 177.515 126.593 177.175 124.833C176.875 123.283 176.665 121.693 176.555 120.113C176.525 119.693 177.525 119.753 177.555 120.203H177.525Z" fill="black"/>
<path d="M172.975 133.433C172.545 134.183 172.225 135.013 171.955 135.823C171.295 137.773 170.975 139.843 171.025 141.903C171.025 142.333 170.035 142.263 170.025 141.813C169.975 139.723 170.315 137.643 170.975 135.653C171.255 134.803 171.585 133.943 172.035 133.163C172.245 132.803 173.215 133.013 172.985 133.423L172.975 133.433Z" fill="black"/>
<path d="M185.225 141.413C185.045 143.893 185.305 146.463 185.655 148.913C186.505 154.823 188.405 160.533 191.195 165.803C191.405 166.193 190.415 166.263 190.215 165.893C187.385 160.533 185.465 154.713 184.635 148.703C184.305 146.283 184.045 143.773 184.225 141.333C184.255 140.893 185.255 140.983 185.225 141.423V141.413Z" fill="black"/>
<path d="M199.185 147.463C199.215 149.833 199.505 152.213 199.895 154.543C200.665 159.133 201.985 163.753 204.505 167.703C204.795 168.153 203.835 168.303 203.615 167.953C201.055 163.953 199.695 159.283 198.915 154.633C198.515 152.243 198.215 149.803 198.185 147.373C198.185 146.943 199.175 147.013 199.185 147.463Z" fill="black"/>
<path d="M213.775 155.883C213.975 157.343 214.445 158.803 214.965 160.183C216.225 163.503 218.135 166.553 220.585 169.113C220.935 169.483 219.975 169.653 219.695 169.363C217.235 166.793 215.325 163.733 214.045 160.413C213.495 158.993 213.005 157.483 212.795 155.973C212.725 155.493 213.715 155.483 213.775 155.883Z" fill="black"/>
<path d="M102.025 74.9726C102.025 74.9726 88.2351 91.5526 67.2751 77.8726C67.2751 77.8726 54.8352 86.3226 45.4152 84.9326C35.9952 83.5426 32.4752 78.8226 34.1752 73.3326C34.1752 73.3326 27.5751 73.8626 25.1951 70.1326C22.8151 66.4026 25.9551 62.6126 25.9551 62.6126C25.9551 62.6126 18.7251 63.0226 14.2751 58.4226C9.82515 53.8226 16.9052 49.2426 16.9052 49.2426C16.9052 49.2426 12.8252 48.5026 10.4752 43.9526C8.12516 39.4126 13.8452 41.8926 25.2852 33.0326C36.7252 24.1726 43.7052 11.1826 57.9252 17.2026C57.9252 17.2026 53.5451 11.5726 55.1851 6.6426C56.8251 1.7026 64.6351 1.62258 68.0251 7.91258C68.0251 7.91258 69.4452 0.312576 74.0452 0.372576C78.6352 0.442576 83.7152 8.7426 82.2852 17.8926C82.2852 17.8926 88.3651 8.26258 91.2751 10.3726C94.1851 12.4826 91.4551 17.9026 91.1951 33.3026C90.9351 48.7126 93.7851 68.2926 102.015 74.9626L102.025 74.9726Z" fill="white"/>
<path d="M57.9352 17.2026C57.9352 17.2026 53.5552 11.5726 55.1952 6.6426C56.8352 1.7026 64.6452 1.62258 68.0352 7.91258C68.0352 7.91258 69.4552 0.312576 74.0552 0.372576C78.6452 0.442576 83.7252 8.7426 82.2952 17.8926C82.2952 17.8926 88.3752 8.26258 91.2852 10.3726C92.5152 11.2626 92.7352 12.7526 92.5652 15.3226C91.4852 14.4626 90.1452 13.6926 88.8952 13.8026C86.2252 14.0326 80.6952 22.8726 80.6952 22.8726C80.6952 22.8726 79.6752 17.9126 80.0152 12.3326C80.3552 6.7626 77.2852 2.85259 74.0752 5.63259C70.8652 8.41259 70.4252 13.4026 70.4252 13.4026C66.5852 5.41258 60.2652 4.69259 58.0552 7.88259C55.8452 11.0726 60.6852 19.0626 60.6852 19.0626C48.6452 15.6526 40.0752 23.4026 31.8752 31.7726C23.6752 40.1326 12.9052 42.3626 14.6752 45.0326C16.4452 47.7026 30.8352 49.1126 30.8352 49.1126C30.8352 49.1126 22.8752 52.0326 19.5852 52.1326C16.2952 52.2326 14.7452 57.3526 21.8352 59.4526C28.9252 61.5526 45.3152 57.9426 45.3152 57.9426C45.3152 57.9426 35.5152 63.9826 31.5152 64.3726C27.5252 64.7626 25.4552 68.5426 32.3552 70.2626C39.2552 71.9826 57.1552 67.4226 57.1552 67.4226C52.7352 70.5326 46.4152 74.1326 41.6652 75.3726C36.9052 76.6126 36.5852 79.8126 47.2852 81.2326C57.9852 82.6526 69.9552 75.4526 69.9552 75.4526C76.6152 81.3726 87.3252 81.4426 94.0652 80.8426C87.9752 83.7826 78.6852 85.3226 67.2652 77.8626C67.2652 77.8626 54.8252 86.3126 45.4052 84.9226C35.9852 83.5326 32.4652 78.8126 34.1652 73.3226C34.1652 73.3226 27.5652 73.8526 25.1852 70.1226C22.8052 66.3926 25.9452 62.6026 25.9452 62.6026C25.9452 62.6026 18.7152 63.0126 14.2652 58.4126C9.8152 53.8126 16.8952 49.2326 16.8952 49.2326C16.8952 49.2326 12.8152 48.4926 10.4652 43.9426C8.11521 39.4026 13.8352 41.8826 25.2752 33.0226C36.7152 24.1626 43.6952 11.1726 57.9152 17.1926L57.9352 17.2026Z" fill="#00D100"/>
<path d="M94.3151 81.1526C90.2851 82.6726 86.0451 83.5526 81.7251 83.3026C76.3751 82.9926 71.3851 80.9426 66.9151 78.0626L67.6151 78.1226C63.6251 80.8226 59.0551 83.0126 54.4251 84.3426C51.1451 85.2826 47.7951 85.6926 44.4151 85.0926C41.0351 84.4926 37.7751 83.4526 35.4451 81.0626C33.3651 78.9426 32.8451 76.0826 33.6851 73.2826L34.2851 73.6526C31.6151 73.8526 28.4951 73.4226 26.2751 71.8326C23.1351 69.5826 23.2451 65.2326 25.5351 62.4126L26.0551 62.9326C21.7751 63.1626 16.8551 61.7326 13.8651 58.5826C10.6451 55.1926 13.3051 51.1126 16.5751 48.9826L16.7451 49.5426C13.6651 48.9526 10.1551 45.9026 9.51511 42.7926C9.02511 40.4026 12.9951 39.6226 14.5351 38.9626C20.2051 36.5326 25.1351 32.9126 29.6551 28.7426C33.6451 25.0626 37.3951 20.9226 42.0451 18.0626C47.1351 14.9326 52.7051 14.6726 58.1951 16.9426L57.4751 17.3226C54.9051 13.9826 52.4151 7.61261 56.1851 4.24261C60.2251 0.64261 66.2051 3.75259 68.4651 7.78259L67.5251 7.8626C68.0451 5.1326 69.3751 1.65258 72.0751 0.432581C76.4251 -1.51742 80.0851 3.56258 81.4951 6.96258C82.9051 10.3626 83.3051 14.2426 82.7751 17.9326L81.8051 17.7626C82.5751 16.5526 83.4251 15.3826 84.3251 14.2626C85.5951 12.6726 87.1251 10.7826 89.0651 10.0026C90.3651 9.48259 91.6851 9.83261 92.4451 11.0226C93.1451 12.1026 93.1251 13.5326 93.0751 14.7726C92.9751 17.1326 92.6251 19.4826 92.3851 21.8326C91.9951 25.7126 91.7451 29.6126 91.6851 33.5226C91.5751 41.0126 92.1051 48.5626 93.5951 55.9126C94.9251 62.4626 96.9951 70.3126 102.385 74.7626C102.845 75.1426 101.965 75.4226 101.645 75.1626C97.4551 71.7026 95.3151 66.2026 93.8651 61.1226C91.9751 54.5026 91.1351 47.5826 90.8151 40.7226C90.4951 33.8626 90.8351 26.8626 91.5851 19.9626C91.8051 17.9326 92.1251 15.8826 92.1051 13.8326C92.1051 12.7426 91.9751 11.3826 91.0351 10.6626C89.3851 9.41259 86.6851 12.8426 85.7851 13.9126C84.6851 15.2026 83.6651 16.5826 82.7651 18.0226C82.5851 18.3026 81.7351 18.2926 81.7951 17.8526C82.3151 14.2726 81.9751 10.5926 80.6051 7.22259C79.6051 4.76259 77.8151 1.73259 75.0951 0.882594C71.2051 -0.337407 69.0851 5.00258 68.5251 7.96258C68.4551 8.33258 67.7451 8.3426 67.5851 8.0426C66.3651 5.8626 64.4451 4.05261 61.9451 3.52261C59.8851 3.09261 57.5651 3.6626 56.3151 5.4526C53.8951 8.9026 56.0851 14.1126 58.3751 17.0726C58.6951 17.4926 57.8651 17.5426 57.6551 17.4526C52.7051 15.4026 47.7451 15.6126 43.1151 18.3426C38.7551 20.9126 35.2151 24.7126 31.5551 28.1526C27.4651 32.0026 23.1051 35.5626 18.0851 38.1326C16.4151 38.9826 14.6951 39.6926 12.9651 40.4026C12.2151 40.7126 10.9051 41.0826 10.5551 41.9126C10.3751 42.3326 10.5051 42.7826 10.6551 43.1826C11.1251 44.4826 12.0451 45.7126 13.0351 46.6626C14.1251 47.7026 15.5651 48.6426 17.0851 48.9326C17.3851 48.9926 17.5451 49.3026 17.2551 49.4926C16.2051 50.1826 15.2251 51.1126 14.4851 52.1226C12.8751 54.3326 13.0451 56.6926 15.0551 58.6026C17.8151 61.2126 22.0851 62.4826 25.8651 62.2826C26.1451 62.2726 26.6651 62.4726 26.3851 62.8026C24.2151 65.4726 24.2351 69.6826 27.3351 71.6226C29.2551 72.8226 31.8451 73.1626 34.0851 72.9926C34.2351 72.9826 34.7751 73.0726 34.6851 73.3626C33.9851 75.7226 34.1851 78.1726 35.7551 80.1526C37.7451 82.6626 41.1051 83.7726 44.1351 84.3726C50.6051 85.6426 57.1451 83.0626 62.7751 80.0626C64.1951 79.3026 65.6051 78.5026 66.9451 77.6026C67.1451 77.4626 67.4651 77.5426 67.6451 77.6626C72.0051 80.4726 76.8951 82.4426 82.1151 82.6726C86.1451 82.8526 90.0951 81.9626 93.8451 80.5426C94.2851 80.3826 94.9151 80.9126 94.2951 81.1426L94.3151 81.1526Z" fill="black"/>
<path d="M80.9452 36.1026C81.4152 35.3126 81.8052 34.4726 82.1052 33.6026C82.3052 33.0226 83.0152 29.9826 81.6152 30.7126C79.9752 31.5626 78.6452 33.4926 77.5952 34.9726C77.4052 35.2426 76.5852 35.2526 76.6252 34.8026C77.0152 30.4726 77.2452 25.7826 76.2752 21.5226C75.9752 20.1826 74.9152 16.9226 73.1552 18.7826C71.3952 20.6426 70.8852 23.5226 70.3552 25.7926C69.9052 27.7126 69.5452 29.6526 69.2952 31.6026C69.2452 32.0326 68.5552 31.8926 68.3552 31.6826C67.3652 30.6326 66.2652 29.6326 65.0852 28.8026C64.5052 28.3926 63.4952 27.6026 62.7252 27.7326C61.7152 27.9026 61.8752 29.6526 61.9152 30.3526C61.9452 30.7726 60.9452 30.7126 60.9152 30.2626C60.8552 29.2426 60.8152 27.7326 61.9352 27.2226C62.8552 26.8026 63.9552 27.2626 64.7652 27.7226C66.4452 28.6626 67.9252 30.0326 69.2452 31.4326L68.3052 31.5126C68.5452 29.6226 68.8952 27.7426 69.3252 25.8926C69.8952 23.4226 70.5252 20.2626 72.3352 18.3726C73.8252 16.8126 75.7552 17.6626 76.5952 19.3926C77.8352 21.9726 77.8452 25.2426 77.8752 28.0426C77.9052 30.3226 77.8252 32.6126 77.6252 34.8826L76.6552 34.7126C77.2852 33.8226 77.9752 32.9726 78.6952 32.1626C79.4852 31.2826 80.6152 29.9526 81.9052 29.8826C85.0852 29.7026 82.6052 35.1426 81.8952 36.3526C81.6852 36.7126 80.7152 36.5026 80.9452 36.0926V36.1026Z" fill="black"/>
<path d="M81.1051 63.3326C79.7051 63.9926 78.2551 64.5626 76.7951 65.0526C74.9651 65.6626 72.4951 66.5326 70.5651 65.8526C66.7151 64.4926 71.7051 58.8226 73.1551 57.3526L73.9051 57.8126C69.4551 59.8426 64.4851 61.6826 59.5851 62.0526C57.4551 62.2126 54.4451 62.0826 53.3251 59.9026C52.2051 57.7226 54.5551 55.3426 56.0751 54.0226C57.8251 52.5026 59.8151 51.1926 61.8551 50.1026L62.4151 50.6626C58.3451 51.9826 53.2452 52.8926 49.1152 51.4726C47.5352 50.9326 45.2452 49.6526 45.7952 47.6426C46.2852 45.8326 48.3451 44.5626 49.8451 43.6626C51.2651 42.8026 52.7652 42.0526 54.3052 41.4426C54.6752 41.2926 55.5151 41.7426 54.9651 41.9626C52.3551 43.0026 49.2051 44.4126 47.4151 46.6426C45.9751 48.4326 47.1651 49.9226 49.0351 50.7126C51.5051 51.7626 54.4551 51.5526 57.0451 51.1626C58.7051 50.9226 60.3651 50.5626 61.9651 50.0426C62.2851 49.9426 63.0451 50.3326 62.5251 50.6026C61.0851 51.3626 59.7051 52.2526 58.3951 53.2226C56.7451 54.4426 54.0351 56.4126 54.0351 58.7126C54.0351 61.4926 57.8351 61.5226 59.7551 61.3426C62.6451 61.0726 65.4751 60.2126 68.2051 59.2626C69.9151 58.6626 71.6151 58.0126 73.2551 57.2626C73.5151 57.1426 74.3951 57.3226 74.0051 57.7226C72.9551 58.7926 67.8451 64.8226 71.4151 65.3426C73.2551 65.6126 75.3751 64.7726 77.0651 64.1726C78.2151 63.7626 79.3551 63.3026 80.4551 62.7926C80.8251 62.6226 81.6652 63.0626 81.1152 63.3126L81.1051 63.3326Z" fill="black"/>
<path d="M71.9551 73.5426C70.9451 75.2226 69.4451 76.7026 67.9151 77.8826C67.0951 78.5126 66.2151 79.0826 65.2951 79.5626C65.0851 79.6726 64.7751 79.6526 64.5951 79.5026C64.4251 79.3626 64.4351 79.1526 64.6351 79.0426C67.0151 77.7926 69.1551 75.9526 70.7051 73.7526C70.8151 73.6026 70.9151 73.4526 71.0151 73.2926C71.2251 72.9326 72.2051 73.1426 71.9651 73.5526L71.9551 73.5426Z" fill="black"/>
<path d="M58.815 66.9126C56.715 68.2926 54.335 69.3026 52.005 70.2026C46.355 72.3826 40.335 73.5226 34.285 73.6526C33.765 73.6626 33.405 73.0226 34.075 73.0026C40.045 72.8826 45.9751 71.7426 51.5551 69.5926C53.8151 68.7226 56.115 67.7226 58.155 66.3826C58.505 66.1526 59.325 66.5726 58.815 66.9026V66.9126Z" fill="black"/>
<path d="M46.7451 57.6526C44.5651 58.8326 42.2351 59.7726 39.8951 60.6026C35.4351 62.1726 30.685 63.2326 25.935 62.9426C25.325 62.9026 25.3751 62.2626 25.9951 62.2926C30.6651 62.5726 35.3351 61.4726 39.7051 59.9026C41.8751 59.1226 44.0551 58.2326 46.0851 57.1326C46.4451 56.9326 47.2751 57.3626 46.7451 57.6526Z" fill="black"/>
<path d="M32.1151 49.0726C30.6451 49.6426 29.0351 49.9426 27.4851 50.1626C23.9051 50.6626 20.255 50.4526 16.755 49.5426C16.115 49.3726 16.555 48.8026 17.075 48.9426C20.465 49.8226 23.995 49.9926 27.455 49.4826C28.865 49.2726 30.315 48.9826 31.655 48.4626C32.085 48.2926 32.7151 48.8326 32.1051 49.0626L32.1151 49.0726Z" fill="black"/>
<path d="M1.45514 168.813C34.7151 166.383 116.545 207.003 116.545 207.003C116.545 207.003 82.8751 149.063 158.705 111.413C180.065 100.803 192.325 89.7826 203.045 77.7926C230.385 47.2426 229.205 16.4626 229.205 16.4626C182.645 21.3226 121.075 8.4426 121.075 8.4426C121.075 8.4426 119.305 23.6126 111.915 40.6326C104.805 57.0026 95.0952 72.8226 60.6552 82.5826C-8.28485 102.113 1.47516 168.813 1.47516 168.813H1.45514Z" fill="#93D977" stroke="black" stroke-miterlimit="10"/>
<path d="M127.355 21.9926C125.945 27.7926 123.385 35.2426 118.155 45.0926C109.345 65.1926 93.1452 78.5026 70.8452 86.1426C53.4452 92.1026 46.1952 95.6026 37.8452 101.953C33.1351 105.543 29.0351 109.863 25.6951 114.763C8.25513 140.313 11.0951 154.353 11.0851 159.503C34.4651 161.183 71.1552 174.003 90.8552 184.073C89.8952 178.633 88.6751 175.993 89.4551 168.633C91.3251 151.013 104.135 126.573 140.885 106.863C155.495 99.0326 168.695 91.2526 180.295 80.6926C189.595 72.2326 199.035 61.2926 206.005 51.4626C212.125 42.8326 212.205 34.6826 214.705 29.3526C211.385 29.5126 207.925 29.5926 204.355 29.5926C175.655 29.5926 145.675 24.5326 132.465 21.9926H127.355ZM204.365 23.7726C211.255 23.7726 215.505 23.7326 221.915 23.0126C221.915 23.0126 226.445 70.3926 145.625 110.903C79.0151 146.623 103.195 196.403 103.195 196.403C103.195 196.403 37.8751 165.183 7.45514 165.183C6.51514 165.183 5.61517 165.213 4.74518 165.283C4.74518 165.283 -4.35487 103.713 67.6951 83.4626C118.915 69.0626 124.365 14.1226 124.365 14.1226C124.365 14.1226 167.265 23.7726 204.355 23.7726H204.365Z" fill="#73B75B" stroke="black" stroke-miterlimit="10"/>
<path d="M209.195 45.7126C209.195 45.7126 196.015 42.4326 194.485 26.7526H217.525L209.195 45.7126Z" fill="#73B75B" stroke="black" stroke-miterlimit="10"/>
<path d="M145.225 21.9926C145.225 21.9926 139.735 34.3626 122.675 34.0826L127.575 18.1426L145.225 22.0026V21.9926Z" fill="#73B75B" stroke="black" stroke-miterlimit="10"/>
<path d="M92.0151 169.393C92.0151 169.393 73.3851 164.653 73.8751 180.163L94.4651 189.643L92.0151 169.393Z" fill="#73B75B" stroke="black" stroke-miterlimit="10"/>
<path d="M20.1651 164.893C20.1651 164.893 21.0551 148.293 9.96509 147.083V162.873L20.1651 164.893Z" fill="#73B75B" stroke="black" stroke-miterlimit="10"/>
<path d="M86.1153 109.353C96.9253 114.883 115.495 112.833 126.695 104.483C137.755 96.2326 136.225 85.8426 124.235 81.4826C113.075 77.4226 96.6252 80.0626 86.6952 87.1926C76.6552 94.4126 76.0753 104.223 86.1153 109.353Z" fill="#73B75B" stroke="black" stroke-miterlimit="10"/>
<path d="M85.4052 86.8126C74.7452 94.4726 74.2252 104.793 84.8552 110.283C96.3552 116.223 116.225 114.073 128.205 105.123C140.025 96.3026 138.305 85.2026 125.465 80.5826C113.575 76.3026 96.1052 79.1226 85.5752 86.6926L85.4152 86.8126H85.4052ZM82.0052 85.1626C85.0552 82.9726 88.5952 81.1026 92.5352 79.5726C96.3652 78.0926 100.435 76.9926 104.655 76.2926C108.935 75.5926 113.185 75.3426 117.315 75.5626C121.665 75.7926 125.695 76.5326 129.295 77.7826C132.975 79.0626 135.995 80.7926 138.235 82.9526C140.445 85.0826 141.815 87.5326 142.265 90.2326C142.725 92.9826 142.205 95.8426 140.695 98.7126C139.115 101.733 136.535 104.603 133.025 107.233C129.505 109.873 125.285 112.093 120.525 113.803C115.955 115.443 111.125 116.543 106.195 117.063C101.335 117.573 96.6552 117.503 92.2952 116.853C87.8752 116.193 83.9952 114.983 80.7752 113.253C77.6252 111.563 75.2852 109.493 73.7852 107.113C72.3652 104.853 71.7652 102.413 71.9552 99.8426C72.1452 97.3126 73.0952 94.7826 74.7752 92.3026C76.4952 89.7626 78.9152 87.3626 81.9852 85.1726L82.0052 85.1626Z" fill="#73B75B" stroke="black" stroke-miterlimit="10"/>
<path d="M86.5751 87.2826C76.5351 94.5026 76.0752 104.223 86.1152 109.353C96.9252 114.883 115.495 112.833 126.695 104.483C137.755 96.2326 136.225 85.8426 124.235 81.4826C113.075 77.4226 96.6251 80.0626 86.6951 87.1926L86.5751 87.2826ZM84.6652 86.3126C90.0052 82.4826 97.0852 79.7126 104.745 78.4826C112.575 77.2226 120.255 77.6926 126.405 79.8926C132.805 82.1726 136.825 86.0526 137.545 90.8726C138.295 95.8526 135.405 101.143 129.375 105.643C123.305 110.183 114.965 113.243 106.095 114.213C97.4452 115.163 89.5351 113.993 83.8351 111.013C78.3551 108.153 75.5951 103.983 75.8851 99.2926C76.1651 94.7426 79.2852 90.1626 84.6652 86.3026V86.3126Z" fill="#93D977" stroke="black" stroke-miterlimit="10"/>
<path d="M122.285 99.8526C124.245 98.2126 125.465 96.4926 125.945 94.6926L119.535 94.0726C119.115 96.0226 118.005 97.6626 116.205 98.9926C113.435 101.033 111.025 101.603 108.995 100.703C107.995 100.253 107.405 99.5826 107.225 98.6826C107.055 97.7926 107.425 96.4126 108.335 94.5526C109.235 92.7126 109.695 91.4126 109.715 90.6326C109.735 89.8526 109.465 89.1526 108.905 88.5126C108.355 87.8726 107.515 87.3326 106.405 86.8926C104.775 86.2326 102.875 86.0126 100.685 86.2226C98.5152 86.4326 96.4153 87.0426 94.3953 88.0526L91.3553 86.7626L87.4953 89.5426L90.3553 90.7826C88.4653 92.3826 87.3953 93.7426 87.1753 94.8526L92.3453 95.5926C92.8053 93.9426 93.9053 92.4826 95.6453 91.2226C96.6753 90.4726 97.7553 90.0126 98.8853 89.8426C100.025 89.6726 101.025 89.7626 101.905 90.1326C103.405 90.7626 103.365 92.6126 101.745 95.7026C100.885 97.3526 100.435 98.6226 100.405 99.5226C100.365 100.423 100.645 101.253 101.225 102.003C101.815 102.763 102.725 103.423 103.955 104.003C105.725 104.823 107.835 105.143 110.285 104.953C112.755 104.763 115.235 104.053 117.715 102.833L122.415 104.893L126.665 101.733L122.285 99.8726V99.8526Z" fill="url(#paint0_radial_2422_4800)" stroke="black" stroke-miterlimit="10"/>
<path d="M147.462 61.3212C144.571 58.8133 145.317 53.2189 149.128 48.8259C152.938 44.4328 158.371 42.9046 161.262 45.4125C164.154 47.9205 163.408 53.5148 159.597 57.9079C155.787 62.3009 150.354 63.8291 147.462 61.3212Z" fill="url(#paint1_radial_2422_4800)" stroke="black" stroke-miterlimit="10"/>
<path d="M58.3155 143.186C55.4243 140.678 56.1698 135.084 59.9806 130.691C63.7913 126.297 69.2243 124.769 72.1155 127.277C75.0066 129.785 74.2611 135.379 70.4503 139.773C66.6396 144.166 61.2067 145.694 58.3155 143.186Z" fill="url(#paint2_radial_2422_4800)" stroke="black" stroke-miterlimit="10"/>
<defs>
<radialGradient id="paint0_radial_2422_4800" cx="0" cy="0" r="1" gradientUnits="userSpaceOnUse" gradientTransform="translate(106.925 95.5626) rotate(180) scale(15.47 15.47)">
<stop stop-color="#7C00A3"/>
<stop offset="0.15" stop-color="#78029E"/>
<stop offset="0.31" stop-color="#6E0A92"/>
<stop offset="0.46" stop-color="#5D177E"/>
<stop offset="0.52" stop-color="#551E74"/>
<stop offset="1"/>
</radialGradient>
<radialGradient id="paint1_radial_2422_4800" cx="0" cy="0" r="1" gradientUnits="userSpaceOnUse" gradientTransform="translate(154.401 53.4193) rotate(180) scale(8.90999 8.91)">
<stop stop-color="#7C00A3"/>
<stop offset="0.15" stop-color="#78029E"/>
<stop offset="0.31" stop-color="#6E0A92"/>
<stop offset="0.46" stop-color="#5D177E"/>
<stop offset="0.52" stop-color="#551E74"/>
<stop offset="1"/>
</radialGradient>
<radialGradient id="paint2_radial_2422_4800" cx="0" cy="0" r="1" gradientUnits="userSpaceOnUse" gradientTransform="translate(65.2553 135.297) rotate(180) scale(8.90999 8.91)">
<stop stop-color="#7C00A3"/>
<stop offset="0.15" stop-color="#78029E"/>
<stop offset="0.31" stop-color="#6E0A92"/>
<stop offset="0.46" stop-color="#5D177E"/>
<stop offset="0.52" stop-color="#551E74"/>
<stop offset="1"/>
</radialGradient>
</defs>
</svg>
