<svg width="124" height="133" viewBox="0 0 124 133" fill="none" xmlns="http://www.w3.org/2000/svg">
<g filter="url(#filter0_d_2429_1829)">
<path d="M85.9278 125H38.0771C37.9681 124.886 37.8713 124.758 37.7502 124.659C37.0045 124.041 36.6753 123.249 36.9876 122.266C37.2975 121.292 37.9899 120.846 38.9366 120.843C39.2586 120.843 39.5806 120.843 39.9026 120.843C42.7288 120.843 44.9393 119.568 46.534 117.017C48.1707 114.385 49.5265 111.612 50.139 108.359H48.6016C35.9562 108.359 23.3107 108.359 10.6653 108.354C9.98498 108.354 9.2877 108.341 8.62674 108.198C6.16205 107.661 4.84012 105.798 4 103.418C4 93.7071 4 83.9963 4 74.288C4.44548 73.8762 4.83044 73.2898 5.34614 73.0839C6.76248 72.5235 7.86167 73.626 7.86409 75.5259C7.87135 84.1083 7.86409 92.6907 7.86651 101.276C7.86651 103.598 8.42094 104.197 10.5757 104.197C44.8513 104.197 79.1269 104.197 113.403 104.197C115.572 104.197 116.134 103.6 116.134 101.297C116.134 78.2364 116.134 55.1737 116.134 32.1136C116.134 29.8983 115.555 29.2911 113.461 29.2911C106.413 29.2911 99.365 29.2911 92.3147 29.2911C91.891 29.2911 91.4697 29.2911 91.0678 29.2911V33.4533H92.4334C98.152 33.4533 103.873 33.4533 109.592 33.4533C111.659 33.4533 112.267 34.0944 112.267 36.2915C112.267 53.8029 112.267 71.3168 112.267 88.8282C112.267 91.0488 111.662 91.7107 109.623 91.7107C77.8849 91.7107 46.1466 91.7107 14.4083 91.7107C12.3407 91.7107 11.733 91.0644 11.733 88.8647C11.733 71.3533 11.733 53.8393 11.733 36.328C11.733 34.097 12.3238 33.4533 14.372 33.4507C20.1318 33.4481 25.8916 33.4507 31.6515 33.4507H32.9032V29.2885C25.3977 29.2885 17.9867 29.2885 10.5781 29.2885C8.41368 29.2885 7.86893 29.8749 7.86651 32.1997C7.86651 40.0445 7.85924 47.8919 7.87377 55.7367C7.87377 56.8443 7.75756 57.8556 6.64385 58.2882C5.45993 58.7495 4.64159 58.1344 4 57.1154V30.0651C5.24203 26.3043 7.75756 24.9856 11.3844 25.0742C18.1465 25.2436 24.9135 25.1237 31.6781 25.1237C32.1042 25.1237 32.5303 25.1237 32.833 25.1237C33.3632 23.5365 32.7531 22.984 31.5352 22.58C28.0392 21.4228 24.5843 20.1353 21.1172 18.8791C19.7299 18.3761 19.0327 17.1512 19.6694 16.0435C20.0447 15.392 20.8146 14.8446 21.5143 14.5918C34.5084 9.89277 47.517 5.25886 60.5062 0.567611C61.5642 0.187099 62.4867 0.189705 63.535 0.567611C74.3574 4.47959 85.1918 8.35248 96.0239 12.2358C98.3893 13.0828 100.757 13.922 103.115 14.7873C104.001 15.1131 104.677 15.835 104.466 16.815C104.309 17.5395 103.665 18.1754 103.149 18.7618C102.929 19.012 102.486 19.0355 102.142 19.158C98.4522 20.4872 94.76 21.8138 91.0509 23.1482V25.1211H92.3922C99.3577 25.1211 106.323 25.1211 113.291 25.1211C117.736 25.1211 120.003 27.5397 120.005 32.2857C120.005 55.2545 120.005 78.2234 120.005 101.192C120.005 105.886 117.734 108.352 113.403 108.352C100.718 108.352 88.0342 108.352 75.35 108.352H73.7787C73.953 109.053 74.0717 109.637 74.2412 110.202C75.3064 113.765 77.224 116.793 79.3473 119.704C79.9453 120.525 80.5578 120.948 81.5626 120.859C82.7635 120.755 83.9982 120.692 85.1773 120.896C85.8213 121.008 86.6324 121.573 86.8987 122.175C87.1384 122.717 86.7873 123.603 86.5912 124.302C86.5137 124.578 86.1578 124.766 85.9278 124.995V125ZM108.316 87.4991V37.7145H91.0025C91.0025 39.5545 90.9371 41.2903 91.0219 43.0182C91.0921 44.4542 90.5885 45.4264 89.4457 46.0962C87.6807 47.1283 85.952 48.2359 84.1532 49.195C83.4656 49.5625 83.2259 49.9482 83.2501 50.7535C83.3058 52.5727 83.2913 54.3945 83.2574 56.2136C83.2307 57.6731 82.347 58.541 81.1195 58.4003C80.0542 58.2778 79.4296 57.4829 79.4078 56.1354C79.3836 54.5639 79.403 52.9923 79.403 51.3869C79.0955 51.4181 78.9696 51.4077 78.8606 51.4442C70.9509 54.1573 62.8716 54.8818 54.652 53.7221C47.4274 52.703 40.6289 50.347 34.4696 46.0467C33.4116 45.3091 32.925 44.4099 32.9831 43.039C33.0605 41.2433 33.0024 39.4424 33.0024 37.6702H15.677V87.4912H108.316V87.4991ZM79.4005 27.3885C78.9744 27.5162 78.7081 27.5814 78.4466 27.6752C73.4495 29.4631 68.4499 31.2353 63.4648 33.0545C62.46 33.422 61.5667 33.3985 60.5498 33.0284C53.054 30.2971 45.5365 27.6283 38.0262 24.9413C37.6752 24.8162 37.3144 24.7171 36.8665 24.579C36.8665 29.4501 36.8665 34.1283 36.8665 38.8065C36.8665 43 36.8568 43.0182 40.3384 44.9416C47.1514 48.705 54.4704 50.0577 62.046 50.0785C67.6751 50.0942 73.1977 49.2706 78.5241 47.2403C78.8776 47.1048 79.3594 46.6148 79.3618 46.2838C79.4126 40.0471 79.3981 33.8103 79.3981 27.3859L79.4005 27.3885ZM96.3749 16.8045C95.8374 16.5778 95.6559 16.4892 95.467 16.4188C84.5696 12.5094 73.6746 8.59486 62.7675 4.72197C62.2518 4.53953 61.5715 4.62033 61.0389 4.81058C51.6498 8.13876 42.2704 11.5008 32.8911 14.8603C31.2399 15.4519 29.5935 16.0513 27.6712 16.7446C28.1651 16.9713 28.366 17.0834 28.5791 17.1616C39.4789 21.0814 50.3787 24.9986 61.2858 28.9001C61.649 29.0305 62.1066 29.1086 62.4528 28.9888C66.6074 27.5319 70.7499 26.0333 75.1345 24.4565C74.5172 24.1802 74.1249 23.99 73.723 23.8258C69.6677 22.163 65.5978 20.5445 61.5715 18.7983C60.9662 18.5351 60.3004 17.7532 60.1745 17.0964C60.0583 16.497 60.4699 15.418 60.9469 15.1392C61.5376 14.7925 62.5157 14.8186 63.1888 15.0844C68.8058 17.3154 74.3816 19.6584 79.9961 21.9024C80.6087 22.1474 81.4197 22.1552 82.0517 21.9519C84.5139 21.1596 86.9423 20.2448 89.3779 19.3639C91.6078 18.5559 93.8328 17.735 96.3749 16.8019V16.8045ZM69.8759 108.44H54.1435C53.4487 113.079 51.4174 117.004 48.897 120.721H75.1321C72.5464 116.96 70.6047 113.061 69.8735 108.44H69.8759ZM83.3251 45.1084C83.928 44.7644 84.3977 44.4438 84.9037 44.2197C86.6735 43.4378 87.4895 42.1399 87.1578 40.0132C87.0077 39.0437 87.1311 38.0246 87.1311 37.029V24.5686C86.1094 24.9282 85.216 25.3061 84.2887 25.5459C83.4849 25.7544 83.2356 26.1584 83.2428 27.068C83.2888 32.6974 83.2646 38.3296 83.2671 43.9617C83.2671 44.29 83.2985 44.6184 83.3227 45.111L83.3251 45.1084Z" fill="black"/>
<path d="M4.00244 57.1154C4.64403 58.1344 5.45995 58.7469 6.64629 58.2882C7.76 57.8556 7.87863 56.8417 7.87621 55.7367C7.86411 47.8919 7.86895 40.0444 7.86895 32.1996C7.86895 29.8723 8.4137 29.2885 10.5806 29.2885C17.9892 29.2885 25.4002 29.2885 32.9056 29.2885V33.4506H31.6539C25.8941 33.4506 20.1343 33.4506 14.3745 33.4506C12.3286 33.4506 11.7355 34.097 11.7355 36.3279C11.7355 53.8393 11.7355 71.3533 11.7355 88.8647C11.7355 91.0618 12.3432 91.7107 14.4108 91.7107C46.1491 91.7107 77.8874 91.7107 109.626 91.7107C111.664 91.7107 112.269 91.0487 112.269 88.8282C112.269 71.3168 112.269 53.8028 112.269 36.2914C112.269 34.0944 111.662 33.4532 109.594 33.4532C103.876 33.4532 98.1544 33.4532 92.4358 33.4532H91.0703V29.2911C91.4722 29.2911 91.8959 29.2911 92.3172 29.2911C99.365 29.2911 106.413 29.2911 113.463 29.2911C115.557 29.2911 116.136 29.9009 116.136 32.1136C116.136 55.1737 116.136 78.2364 116.136 101.297C116.136 103.6 115.574 104.197 113.405 104.197C79.1294 104.197 44.8538 104.197 10.5782 104.197C8.42338 104.197 7.86895 103.598 7.86895 101.276C7.86895 92.6933 7.87137 84.1109 7.86653 75.5259C7.86653 73.6234 6.76492 72.5209 5.34858 73.0839C4.83288 73.2819 4.44793 73.8684 4.00244 74.2801C4.00244 72.0257 4.00244 69.7713 4.00244 67.5169C4.63919 68.5307 5.45511 69.1484 6.63418 68.6949C7.80358 68.2441 7.91979 67.1703 7.87137 66.034C7.86169 65.8176 7.85926 65.6013 7.87137 65.3876C7.9319 64.2409 7.76242 63.1905 6.63418 62.711C5.43816 62.2028 4.67309 62.9456 4.00486 63.8786V57.1154H4.00244ZM61.8959 100.027C63.184 100.027 64.4744 100.059 65.7625 100.017C66.9948 99.9778 67.801 99.1099 67.7938 97.9292C67.7841 96.7486 66.9754 95.8938 65.7334 95.8781C63.2372 95.8468 60.7387 95.8468 58.2425 95.8781C57.0102 95.8938 56.2039 96.7721 56.2136 97.9579C56.2233 99.1438 57.0271 99.9778 58.2715 100.017C59.4797 100.053 60.6878 100.025 61.8959 100.025V100.027Z" fill="#5F259E"/>
<path d="M4.00242 63.8761C4.67065 62.943 5.43572 62.2003 6.63174 62.7085C7.7624 63.1906 7.92946 64.2383 7.86893 65.3851C7.85682 65.6014 7.85924 65.8177 7.86893 66.0314C7.91735 67.1678 7.80114 68.2415 6.63174 68.6924C5.45266 69.1459 4.63917 68.5308 4 67.5144V63.8735L4.00242 63.8761Z" fill="black"/>
<path d="M79.4032 27.3886C79.4032 33.813 79.4153 40.0498 79.3668 46.2865C79.3644 46.6149 78.8802 47.1075 78.5291 47.243C73.2003 49.2759 67.6802 50.0968 62.0511 50.0812C54.4779 50.0604 47.1564 48.7103 40.3435 44.9443C36.8619 43.0209 36.8716 43.0026 36.8716 38.8092C36.8716 34.131 36.8716 29.4527 36.8716 24.5817C37.3171 24.7198 37.6802 24.8162 38.0313 24.9439C45.5416 27.631 53.0591 30.2998 60.5548 33.0311C61.5717 33.4012 62.4651 33.4247 63.4699 33.0572C68.4549 31.2354 73.4569 29.4632 78.4517 27.6779C78.7107 27.5841 78.9795 27.5189 79.4056 27.3912L79.4032 27.3886Z" fill="#00D100"/>
<path d="M96.3776 16.8019C93.833 17.735 91.608 18.5559 89.3806 19.3639C86.9449 20.2448 84.5166 21.1596 82.0543 21.9519C81.4248 22.1552 80.6137 22.1474 79.9988 21.9024C74.3867 19.6584 68.8084 17.3154 63.1915 15.0844C62.5184 14.816 61.5403 14.7925 60.9495 15.1392C60.4726 15.418 60.061 16.497 60.1772 17.0964C60.3055 17.7532 60.9689 18.5351 61.5742 18.7983C65.598 20.5419 69.6703 22.1604 73.7257 23.8258C74.1276 23.99 74.5222 24.1802 75.1372 24.4565C70.7502 26.0307 66.6101 27.5319 62.4554 28.9888C62.1092 29.1113 61.6492 29.0305 61.2885 28.9001C50.3838 24.9986 39.4816 21.0788 28.5817 17.1616C28.3687 17.086 28.1677 16.974 27.6738 16.7446C29.5962 16.0513 31.2425 15.4493 32.8937 14.8603C42.2731 11.5034 51.6525 8.13877 61.0415 4.81059C61.5742 4.62294 62.2545 4.53954 62.7702 4.72198C73.6797 8.59226 84.5747 12.5094 95.4697 16.4188C95.6585 16.4866 95.8425 16.5752 96.3776 16.8045V16.8019Z" fill="#00D100"/>
<path d="M69.8783 108.438C70.6095 113.059 72.5512 116.955 75.137 120.718H48.9019C51.4222 117.002 53.4535 113.077 54.1484 108.438H69.8807H69.8783Z" fill="#5F259E"/>
<path d="M83.3276 45.1058C83.3034 44.6132 83.2719 44.2848 83.2719 43.9565C83.2695 38.3243 83.2913 32.6948 83.2477 27.0627C83.2404 26.1558 83.4898 25.7492 84.2936 25.5407C85.2209 25.3009 86.1143 24.9204 87.136 24.5634V37.0238C87.136 38.0194 87.0101 39.0385 87.1626 40.008C87.4919 42.1347 86.676 43.4326 84.9086 44.2145C84.4026 44.4386 83.9329 44.7592 83.33 45.1032L83.3276 45.1058Z" fill="#00D100"/>
<path d="M61.8958 100.027C60.6877 100.027 59.4795 100.056 58.2714 100.019C57.027 99.9804 56.2231 99.1464 56.2135 97.9606C56.2038 96.7747 57.01 95.8964 58.2424 95.8808C60.7385 95.8469 63.2371 95.8495 65.7333 95.8808C66.9729 95.8964 67.7839 96.7487 67.7936 97.9319C67.8033 99.1125 66.9947 99.9804 65.7623 100.019C64.4743 100.061 63.1838 100.03 61.8958 100.03V100.027Z" fill="black"/>
<path d="M61.937 79.2216C49.4102 79.2216 36.8834 79.2216 24.359 79.2216C23.9571 79.2216 23.548 79.2502 23.1509 79.1955C22.1026 79.0521 21.3496 78.1452 21.4198 77.0688C21.4949 75.922 22.1074 75.2522 23.1582 75.0828C23.5141 75.0255 23.8821 75.062 24.2452 75.062C49.4199 75.062 74.5922 75.062 99.7668 75.062C100.048 75.062 100.331 75.0489 100.612 75.0672C101.776 75.1454 102.561 75.9455 102.592 77.0766C102.626 78.252 101.815 79.1303 100.602 79.2137C100.241 79.2372 99.8782 79.2216 99.515 79.2216C86.9882 79.2216 74.4614 79.2216 61.937 79.2216Z" fill="black"/>
<path d="M54.2696 64.6579C64.2591 64.6579 74.2462 64.6579 84.2356 64.6579C84.5988 64.6579 84.9644 64.6344 85.3227 64.6735C86.3904 64.7908 87.1264 65.6456 87.1264 66.735C87.1264 67.8192 86.3928 68.6715 85.3203 68.7992C85.0007 68.8383 84.6763 68.8174 84.3543 68.8174C64.2954 68.8174 44.2365 68.8174 24.1801 68.8174C23.8169 68.8174 23.4465 68.8539 23.0954 68.7835C22.0568 68.5724 21.4563 67.887 21.42 66.7324C21.3861 65.6456 22.1488 64.7908 23.2165 64.6735C23.5748 64.6344 23.9404 64.6579 24.3036 64.6579C34.2931 64.6579 44.2801 64.6579 54.2696 64.6579Z" fill="black"/>
<path d="M96.8737 68.8175C95.6244 68.8175 94.3751 68.8436 93.1283 68.8123C91.8209 68.7784 90.9832 67.9105 91.0122 66.683C91.0388 65.505 91.8523 64.6814 93.104 64.6684C95.5615 64.6423 98.0189 64.6423 100.474 64.6684C101.779 64.6814 102.621 65.5623 102.592 66.7872C102.563 67.96 101.75 68.7758 100.498 68.8097C99.29 68.8436 98.0818 68.8175 96.8737 68.8175Z" fill="black"/>
</g>
<defs>
<filter id="filter0_d_2429_1829" x="0" y="0.283203" width="124.005" height="132.717" filterUnits="userSpaceOnUse" color-interpolation-filters="sRGB">
<feFlood flood-opacity="0" result="BackgroundImageFix"/>
<feColorMatrix in="SourceAlpha" type="matrix" values="0 0 0 0 0 0 0 0 0 0 0 0 0 0 0 0 0 0 127 0" result="hardAlpha"/>
<feOffset dy="4"/>
<feGaussianBlur stdDeviation="2"/>
<feComposite in2="hardAlpha" operator="out"/>
<feColorMatrix type="matrix" values="0 0 0 0 0 0 0 0 0 0 0 0 0 0 0 0 0 0 0.25 0"/>
<feBlend mode="normal" in2="BackgroundImageFix" result="effect1_dropShadow_2429_1829"/>
<feBlend mode="normal" in="SourceGraphic" in2="effect1_dropShadow_2429_1829" result="shape"/>
</filter>
</defs>
</svg>
