<svg width="255" height="255" viewBox="0 0 255 255" fill="none" xmlns="http://www.w3.org/2000/svg">
<g clip-path="url(#clip0_3048_1263)">
<path d="M213.922 254.822H204.479C204.028 254.662 203.59 254.43 203.125 254.364C185.208 251.802 170.31 238.6 165.684 221.084C164.974 218.396 164.556 215.635 164.012 212.933H90.8153C90.6229 214.082 90.437 215.051 90.291 216.026C87.5835 234.412 74.1122 249.153 55.9424 253.587C54.1175 254.032 52.2793 254.41 50.4477 254.815H41.0045C40.54 254.669 40.0887 254.45 39.6109 254.384C20.8771 251.729 5.72016 237.943 1.41331 219.611C0.981961 217.779 0.643518 215.92 0.265259 214.075C0.265259 210.929 0.265259 207.783 0.265259 204.637C0.41789 204.185 0.650155 203.741 0.716516 203.27C3.24488 185.249 16.338 170.448 33.937 165.828C36.6313 165.125 39.3985 164.707 42.1658 164.156V90.9722C41.1239 90.7997 40.2347 90.6337 39.3388 90.501C20.6581 87.6668 6.01879 74.359 1.50622 56.1063C1.06823 54.2876 0.683335 52.4491 0.271895 50.6172C0.271895 47.4711 0.271895 44.325 0.271895 41.1722C0.431162 40.5483 0.643518 39.9311 0.736424 39.2939C3.89522 17.7756 22.1048 1.19551 43.4068 0.465399C66.0028 -0.31117 85.1746 14.5897 89.8398 36.5726C90.2446 38.4841 90.5233 40.4289 90.8684 42.3869H163.985C166.096 16.6871 188.731 -1.41961 212.874 0.558322C235.397 2.4035 253.069 20.2779 254.575 42.6125C256.228 67.1375 237.693 88.9943 212.748 91.0519V164.255C214.022 164.461 215.157 164.653 216.298 164.826C225.94 166.28 234.209 170.488 241.13 177.331C241.854 178.048 242.517 179.023 242.763 179.999C243.188 181.692 242.464 183.112 240.858 183.902C238.794 184.911 237.268 183.935 235.788 182.508C223.697 170.919 206.271 168.41 191.724 176.123C177.092 183.882 169.314 199.878 172.227 216.405C173.223 222.047 175.399 227.217 179.162 232.069C182.002 224.721 186.555 219.206 192.906 215.29C190.304 208.765 189.966 206.455 190.444 198.929C191.034 189.683 198.374 181.997 207.306 181.267C217.2 180.457 225.934 186.417 227.792 195.829C229.079 202.354 229.179 208.998 225.748 215.257C232.291 219.206 236.764 224.768 239.524 231.817C239.87 231.565 240.102 231.458 240.235 231.279C240.719 230.609 241.21 229.938 241.628 229.228C247.554 219.179 248.749 208.593 245.225 197.475C244.289 194.521 245.046 192.411 247.269 191.74C249.598 191.037 251.277 192.192 252.312 195.212C252.472 195.683 252.618 196.154 252.757 196.632C260.183 221.682 244.74 247.992 219.231 253.727C217.466 254.125 215.687 254.457 213.916 254.822H213.922ZM90.875 50.053C86.7274 73.4828 72.9575 86.9566 49.9633 91.0386V164.229C73.3291 168.357 86.8801 182.037 90.8684 205.128H164.065C168.186 181.771 181.85 168.211 204.983 164.209V91.032C181.644 86.8836 168.146 73.1377 164.032 50.0464H90.8684L90.875 50.053ZM75.7446 68.1663C86.4089 54.5996 86.7606 31.7937 70.5618 17.3774C55.3916 3.86372 32.1652 4.88587 18.1098 19.7071C3.4506 35.1787 6.01879 57.0222 15.1103 67.6619C16.995 64.6751 18.6341 61.4029 20.9103 58.6617C23.2462 55.8474 26.2125 53.5575 29.0196 50.9225C26.0466 46.3361 26.4514 40.9798 26.5775 35.6898C26.8098 26.3245 33.9901 18.5455 43.367 17.4105C52.485 16.3087 61.6362 22.2027 63.7598 31.1764C65.3591 37.9332 65.3724 44.8095 61.9282 51.4004C68.3321 55.3363 72.9177 60.8321 75.738 68.1663H75.7446ZM239.564 68.1331C250.102 54.8518 250.7 32.4043 234.946 17.8752C219.782 3.89027 196.516 4.64693 182.129 19.5411C167.323 34.8668 169.825 56.989 179.229 68.007C181.996 60.8785 186.601 55.3231 193.105 51.3274C189.82 46.0706 190.178 40.4753 190.49 34.9398C191.014 25.694 198.553 18.1008 207.717 17.3707C217.161 16.6207 225.947 22.7337 227.778 31.9131C229.086 38.4443 229.192 45.0883 225.761 51.3871C232.178 55.3828 236.79 60.8453 239.564 68.1398V68.1331ZM29.2718 215.177C26.0931 210.259 26.4448 204.909 26.5709 199.619C26.7899 190.32 34.01 182.322 43.0285 181.307C52.7903 180.211 61.749 186.019 63.8394 195.411C65.3259 202.081 65.306 208.865 62.1738 214.838C65.0007 217.487 67.9206 219.737 70.2101 222.505C72.4863 225.259 74.1254 228.538 76.0167 231.545C86.0705 219.259 87.2583 195.796 70.2433 180.935C54.5157 167.196 30.1876 169.107 16.6499 185.143C2.84672 201.497 7.18011 222.996 15.462 231.73C18.1364 224.761 22.629 219.299 29.2652 215.17L29.2718 215.177ZM209.277 247.388C217.612 247.308 225.157 244.786 231.946 239.888C233.2 238.985 233.625 238.056 233.194 236.556C231.362 230.137 227.692 225.12 221.945 221.721C221.268 221.323 219.988 221.257 219.317 221.635C212.675 225.325 206.112 225.332 199.469 221.635C198.838 221.283 197.67 221.243 197.06 221.602C191.061 225.12 187.145 230.27 185.606 237.074C185.433 237.83 186.011 239.131 186.661 239.636C193.297 244.746 200.876 247.242 209.277 247.395V247.388ZM45.4706 247.388C53.8454 247.308 61.4703 244.766 68.279 239.735C69.3275 238.959 69.7721 238.255 69.4071 236.868C67.6419 230.217 63.866 225.093 57.9333 221.642C57.2763 221.263 56.0088 221.336 55.312 221.721C48.8285 225.286 42.4113 225.272 35.888 221.821C35.0851 221.396 33.6185 221.389 32.8553 221.841C27.2013 225.206 23.5979 230.197 21.7597 236.503C21.335 237.97 21.6668 238.939 22.9409 239.861C29.6501 244.72 37.1024 247.249 45.4706 247.388ZM47.5079 83.492C53.9516 83.472 61.4438 80.8702 68.2126 75.9586C69.5266 75.0028 69.7323 74.0802 69.3209 72.6465C67.4893 66.2349 63.8129 61.2303 58.0527 57.8718C57.3493 57.4603 56.0021 57.5267 55.2589 57.9315C48.7621 61.4228 42.2985 61.5223 35.9079 57.8453C34.6736 57.1351 33.8773 57.2612 32.8089 57.9315C27.3208 61.383 23.7107 66.2017 21.846 72.4076C21.3483 74.0669 21.6734 75.1156 23.1334 76.1511C29.8691 80.9366 37.2949 83.4986 47.5145 83.492H47.5079ZM209.861 83.4986C217.711 83.4787 225.137 80.9233 231.86 76.1046C233.207 75.1422 233.625 74.1731 233.16 72.5802C231.289 66.1884 227.599 61.1905 221.846 57.832C221.189 57.447 219.935 57.4603 219.251 57.832C212.608 61.4958 206.052 61.4825 199.429 57.7656C198.812 57.4205 197.644 57.4006 197.047 57.7523C191.167 61.2369 187.331 66.3079 185.559 72.9452C185.208 74.2528 185.473 75.0227 186.588 75.8457C193.39 80.8636 200.962 83.4853 209.868 83.4986H209.861ZM221.122 202.918C221.056 202.911 220.99 202.904 220.923 202.898C220.923 201.909 220.95 200.913 220.923 199.924C220.731 193.652 215.873 188.78 209.702 188.661C203.311 188.541 198.274 193.141 197.896 199.553C197.763 201.776 197.763 204.02 197.916 206.243C198.301 211.971 202.654 216.319 208.461 216.923C213.73 217.473 219.006 213.869 220.446 208.54C220.93 206.734 220.917 204.796 221.129 202.918H221.122ZM33.8109 39.0151C33.8773 39.0151 33.9436 39.0284 34.01 39.035C34.01 39.9443 33.9901 40.8537 34.01 41.763C34.1958 48.0021 39.08 52.9336 45.2184 53.0929C51.3967 53.2456 56.5928 48.6061 57.0175 42.4134C57.1767 40.1103 57.1701 37.7806 57.0175 35.4774C56.6459 29.8556 52.2196 25.3355 46.7315 24.8178C41.104 24.2868 35.961 27.6918 34.4878 33.1477C33.9835 35.0327 34.0166 37.0571 33.8043 39.0217L33.8109 39.0151ZM221.149 38.9819C221.069 38.9753 220.996 38.9686 220.917 38.9554C220.917 37.8801 220.957 36.8049 220.917 35.7296C220.651 29.6764 215.674 24.8576 209.622 24.7714C203.497 24.6851 198.387 29.225 197.942 35.2916C197.77 37.6744 197.777 40.0904 197.942 42.4798C198.314 47.9689 202.621 52.3761 208.076 53.0332C213.571 53.6969 218.906 50.2521 220.419 44.8427C220.943 42.9643 220.93 40.9399 221.169 38.9819H221.149ZM33.8109 202.626C33.8773 202.626 33.9436 202.639 34.0166 202.646C34.0166 203.721 33.9835 204.796 34.0166 205.871C34.2555 211.925 39.1397 216.743 45.2251 216.962C51.2042 217.175 56.5131 212.515 56.9843 206.489C57.1701 204.106 57.1635 201.69 57.0108 199.307C56.6525 193.752 52.2859 189.232 46.9637 188.72C41.0509 188.156 35.9942 191.422 34.4812 197.011C33.9901 198.816 34.0166 200.754 33.8043 202.632L33.8109 202.626Z" fill="black"/>
<path d="M90.8752 50.053H164.039C168.153 73.1444 181.658 86.8903 204.99 91.0386V164.215C181.857 168.218 168.186 181.771 164.072 205.135H90.8752C86.8869 182.037 73.3359 168.364 49.9701 164.235V91.0453C72.9643 86.9633 86.7343 73.4895 90.8819 50.0597L90.8752 50.053ZM127.56 65.3588C122.112 66.2415 116.59 66.8256 111.228 68.0867C103.577 69.8788 96.6752 73.4762 90.4173 78.2352C88.4464 79.7286 88.0947 81.9388 89.3954 83.6579C90.6297 85.2841 92.74 85.5363 94.7242 84.2818C95.1423 84.0163 95.5271 83.6977 95.932 83.4057C129.73 59.2259 177.503 80.9432 181.551 122.314C184.962 157.186 154.874 186.099 120.074 181.38C86.8935 176.879 65.492 143.348 75.7316 111.482C77.4238 106.212 80.5096 101.373 83.0711 96.395C83.9006 94.7888 84.5045 93.1095 83.2105 91.8219C82.308 90.9258 80.6357 90.3484 79.3615 90.4413C78.3927 90.5077 77.2778 91.6891 76.6274 92.6449C67.7417 105.614 64.2909 119.951 66.2817 135.529C70.6151 169.379 101.513 193.167 135.41 188.82C163.979 185.156 186.422 161.906 189.004 133.285C192.269 97.1782 163.972 66.1021 127.566 65.3521L127.56 65.3588ZM115.044 142.465C115.044 149.255 115.024 156.038 115.044 162.828C115.071 170.362 120.293 175.851 127.394 175.877C134.528 175.904 139.85 170.428 139.87 162.954C139.903 149.381 139.903 135.801 139.87 122.228C139.85 114.767 134.475 109.238 127.394 109.265C120.333 109.291 115.071 114.84 115.044 122.354C115.017 129.057 115.044 135.761 115.044 142.465ZM127.553 79.3768C120.612 79.3436 115.037 84.8726 115.051 91.7754C115.064 98.5256 120.618 104.114 127.367 104.181C134.176 104.247 139.89 98.5521 139.876 91.7157C139.863 84.919 134.362 79.41 127.553 79.3768Z" fill="#7C00A3"/>
<path d="M209.277 247.395C200.876 247.242 193.304 244.746 186.661 239.636C186.011 239.138 185.433 237.83 185.606 237.073C187.146 230.27 191.061 225.12 197.06 221.602C197.664 221.25 198.838 221.283 199.469 221.635C206.112 225.332 212.668 225.325 219.318 221.635C219.988 221.263 221.269 221.323 221.945 221.721C227.699 225.12 231.369 230.137 233.194 236.556C233.618 238.056 233.194 238.978 231.946 239.888C225.157 244.793 217.612 247.308 209.277 247.388V247.395Z" fill="url(#paint0_radial_3048_1263)" stroke="#1D1D1B" stroke-width="0.859491" stroke-miterlimit="10"/>
<path d="M45.4708 247.388C37.1093 247.249 29.6502 244.713 22.9411 239.861C21.667 238.939 21.3352 237.976 21.7599 236.503C23.5981 230.191 27.1949 225.206 32.8555 221.841C33.6186 221.383 35.0852 221.396 35.8882 221.821C42.4182 225.279 48.8287 225.286 55.3122 221.721C56.009 221.336 57.2831 221.257 57.9334 221.642C63.8661 225.1 67.6355 230.217 69.4073 236.868C69.7789 238.255 69.3277 238.965 68.2792 239.735C61.4705 244.766 53.8456 247.308 45.4708 247.388Z" fill="url(#paint1_radial_3048_1263)" stroke="#1D1D1B" stroke-width="0.859491" stroke-miterlimit="10"/>
<path d="M47.5081 83.4919C37.2884 83.4986 29.8626 80.9366 23.1269 76.151C21.667 75.1156 21.3418 74.0669 21.8395 72.4076C23.7043 66.2083 27.321 61.3829 32.8024 57.9315C33.8708 57.2611 34.6738 57.135 35.9015 57.8452C42.2987 61.5157 48.7557 61.4228 55.2525 57.9315C56.0023 57.5266 57.3495 57.4603 58.0463 57.8718C63.8064 61.2303 67.4895 66.2348 69.3144 72.6465C69.7259 74.0802 69.5201 75.0094 68.2062 75.9586C61.4373 80.8702 53.9451 83.4654 47.5015 83.4919H47.5081Z" fill="url(#paint2_radial_3048_1263)" stroke="#1D1D1B" stroke-width="0.859491" stroke-miterlimit="10"/>
<path d="M209.868 83.4987C200.962 83.4854 193.39 80.8636 186.588 75.8458C185.48 75.0294 185.215 74.2595 185.56 72.9453C187.338 66.3079 191.167 61.237 197.047 57.7524C197.644 57.394 198.812 57.4139 199.429 57.7657C206.045 61.4759 212.602 61.4892 219.251 57.832C219.928 57.4603 221.182 57.4471 221.846 57.832C227.606 61.1905 231.289 66.1885 233.161 72.5802C233.625 74.1798 233.207 75.1422 231.86 76.1046C225.138 80.9167 217.712 83.4721 209.861 83.4987H209.868Z" fill="url(#paint3_radial_3048_1263)" stroke="#1D1D1B" stroke-width="0.859491" stroke-miterlimit="10"/>
<path d="M221.123 202.918C220.91 204.796 220.923 206.734 220.439 208.54C219.006 213.869 213.723 217.473 208.454 216.923C202.648 216.319 198.294 211.971 197.909 206.243C197.757 204.02 197.757 201.776 197.889 199.553C198.268 193.141 203.304 188.541 209.695 188.661C215.867 188.78 220.724 193.645 220.917 199.924C220.95 200.913 220.917 201.909 220.917 202.898C220.983 202.904 221.05 202.911 221.116 202.918H221.123Z" fill="white"/>
<path d="M33.811 39.0151C34.0234 37.0571 33.9902 35.0261 34.4946 33.1411C35.9678 27.6852 41.1108 24.2802 46.7382 24.8112C52.2263 25.3289 56.6526 29.849 57.0242 35.4708C57.1769 37.774 57.1835 40.1037 57.0242 42.4068C56.5995 48.5995 51.4034 53.2456 45.2252 53.0863C39.0934 52.9337 34.2026 47.9955 34.0168 41.7564C33.9902 40.847 34.0168 39.9377 34.0168 39.0284C33.9504 39.0284 33.884 39.0151 33.8177 39.0085L33.811 39.0151Z" fill="white"/>
<path d="M221.142 38.9819C220.91 40.9399 220.917 42.9643 220.393 44.8427C218.886 50.2521 213.551 53.6969 208.049 53.0332C202.595 52.3761 198.288 47.9689 197.916 42.4798C197.757 40.097 197.75 37.681 197.916 35.2915C198.361 29.225 203.47 24.6851 209.596 24.7714C215.648 24.8576 220.625 29.6763 220.89 35.7296C220.937 36.8049 220.89 37.8801 220.89 38.9554C220.97 38.962 221.043 38.9686 221.123 38.9819H221.142Z" fill="white"/>
<path d="M33.811 202.626C34.0234 200.747 33.9968 198.803 34.4879 197.004C36.001 191.422 41.0577 188.156 46.9705 188.714C52.2927 189.218 56.6592 193.738 57.0176 199.3C57.1702 201.683 57.1769 204.099 56.9911 206.482C56.5199 212.509 51.211 217.168 45.2318 216.956C39.1399 216.737 34.2623 211.918 34.0234 205.865C33.9836 204.79 34.0234 203.714 34.0234 202.639C33.957 202.639 33.8907 202.626 33.8177 202.619L33.811 202.626Z" fill="white"/>
<path d="M127.56 65.3588C163.959 66.1088 192.262 97.1915 188.997 133.292C186.409 161.912 163.972 185.163 135.404 188.827C101.513 193.174 70.6085 169.386 66.2751 135.535C64.2842 119.958 67.735 105.621 76.6208 92.6515C77.2778 91.6958 78.386 90.5143 79.3549 90.4479C80.629 90.355 82.308 90.9325 83.2038 91.8285C84.4979 93.1161 83.894 94.7954 83.0645 96.4016C80.5029 101.38 77.4171 106.212 75.7249 111.488C65.4854 143.354 86.8869 176.886 120.068 181.386C154.867 186.105 184.956 157.193 181.545 122.32C177.497 80.9499 129.723 59.2325 95.9253 83.4124C95.5205 83.7044 95.1356 84.023 94.7175 84.2885C92.7333 85.5429 90.6297 85.2907 89.3887 83.6646C88.088 81.9521 88.4398 79.7419 90.4107 78.2419C96.6752 73.4829 103.57 69.8854 111.222 68.0934C116.584 66.8323 122.105 66.2482 127.553 65.3654L127.56 65.3588Z" fill="black"/>
<path d="M115.051 142.465C115.051 135.761 115.031 129.057 115.051 122.354C115.084 114.847 120.34 109.298 127.4 109.265C134.481 109.238 139.856 114.767 139.876 122.227C139.91 135.801 139.91 149.381 139.876 162.954C139.856 170.435 134.534 175.904 127.4 175.877C120.3 175.851 115.077 170.362 115.051 162.828C115.024 156.038 115.051 149.255 115.051 142.465ZM122.503 142.451C122.503 149.155 122.49 155.859 122.503 162.563C122.516 166.24 124.374 168.403 127.447 168.41C130.533 168.417 132.417 166.253 132.424 162.589C132.437 149.268 132.437 135.94 132.424 122.619C132.424 119.015 130.466 116.738 127.473 116.725C124.474 116.718 122.51 118.995 122.496 122.586C122.476 129.203 122.496 135.827 122.496 142.445L122.503 142.451Z" fill="black"/>
<path d="M127.56 79.3769C134.362 79.41 139.863 84.919 139.883 91.7157C139.896 98.5521 134.183 104.254 127.374 104.181C120.625 104.114 115.071 98.519 115.057 91.7754C115.044 84.8726 120.618 79.3437 127.56 79.3769ZM127.513 86.8439C124.786 86.8173 122.576 88.9346 122.516 91.636C122.457 94.3706 124.826 96.7667 127.54 96.7202C130.168 96.6738 132.417 94.3706 132.417 91.7356C132.417 89.0408 130.241 86.8704 127.513 86.8505V86.8439Z" fill="black"/>
<path d="M122.503 142.452C122.503 135.834 122.49 129.21 122.503 122.593C122.516 119.002 124.481 116.719 127.48 116.732C130.473 116.738 132.424 119.022 132.431 122.626C132.444 135.947 132.444 149.275 132.431 162.596C132.431 166.26 130.533 168.423 127.454 168.417C124.374 168.41 122.516 166.246 122.51 162.569C122.49 155.866 122.51 149.162 122.51 142.458L122.503 142.452Z" fill="#00D100"/>
<path d="M127.513 86.8438C130.234 86.8704 132.411 89.0341 132.417 91.7289C132.417 94.3639 130.174 96.6671 127.54 96.7135C124.826 96.76 122.457 94.3706 122.516 91.6293C122.576 88.9279 124.786 86.8173 127.513 86.8372V86.8438Z" fill="#00D100"/>
</g>
<defs>
<radialGradient id="paint0_radial_3048_1263" cx="0" cy="0" r="1" gradientUnits="userSpaceOnUse" gradientTransform="translate(209.47 234.372) scale(19.2382 19.2417)">
<stop stop-color="#7C00A3"/>
<stop offset="0.14" stop-color="#7C00A3"/>
<stop offset="0.26" stop-color="#78029E"/>
<stop offset="0.38" stop-color="#6D0A91"/>
<stop offset="0.51" stop-color="#5C187C"/>
<stop offset="0.55" stop-color="#551E74"/>
<stop offset="0.93"/>
</radialGradient>
<radialGradient id="paint1_radial_3048_1263" cx="0" cy="0" r="1" gradientUnits="userSpaceOnUse" gradientTransform="translate(45.5637 234.392) scale(19.2846 19.2881)">
<stop stop-color="#7C00A3"/>
<stop offset="0.14" stop-color="#7C00A3"/>
<stop offset="0.26" stop-color="#78029E"/>
<stop offset="0.38" stop-color="#6D0A91"/>
<stop offset="0.51" stop-color="#5C187C"/>
<stop offset="0.55" stop-color="#551E74"/>
<stop offset="0.93"/>
</radialGradient>
<radialGradient id="paint2_radial_3048_1263" cx="0" cy="0" r="1" gradientUnits="userSpaceOnUse" gradientTransform="translate(45.5637 70.4296) scale(19.2846 19.2881)">
<stop stop-color="#7C00A3"/>
<stop offset="0.14" stop-color="#7C00A3"/>
<stop offset="0.26" stop-color="#78029E"/>
<stop offset="0.38" stop-color="#6D0A91"/>
<stop offset="0.51" stop-color="#5C187C"/>
<stop offset="0.55" stop-color="#551E74"/>
<stop offset="0.93"/>
</radialGradient>
<radialGradient id="paint3_radial_3048_1263" cx="0" cy="0" r="1" gradientUnits="userSpaceOnUse" gradientTransform="translate(209.383 70.5027) scale(19.278 19.2815)">
<stop stop-color="#7C00A3"/>
<stop offset="0.14" stop-color="#7C00A3"/>
<stop offset="0.26" stop-color="#78029E"/>
<stop offset="0.38" stop-color="#6D0A91"/>
<stop offset="0.51" stop-color="#5C187C"/>
<stop offset="0.55" stop-color="#551E74"/>
<stop offset="0.93"/>
</radialGradient>
<clipPath id="clip0_3048_1263">
<rect width="254.409" height="254.409" fill="white" transform="translate(0.271973 0.412292)"/>
</clipPath>
</defs>
</svg>
