<svg width="126" height="155" viewBox="0 0 126 155" fill="none" xmlns="http://www.w3.org/2000/svg">
<path d="M123.654 154.938H14.5055C14.2356 154.838 13.9657 154.709 13.69 154.645C7.5 153.275 3.3225 149.613 1.22788 143.618C0.834777 142.49 0.629423 141.297 0.33606 140.133C0.33606 98.4376 0.33606 56.7365 0.33606 15.0354C0.412334 14.8532 0.523812 14.671 0.564883 14.4829C2.3896 5.22582 8.45636 0.229919 17.8909 0.229919C52.4961 0.229919 87.1071 0.229919 121.712 0.229919C124.693 0.229919 125.714 1.23498 125.714 4.20901C125.714 44.2291 125.714 84.2493 125.731 124.269C125.731 125.774 125.285 126.955 124.282 128.078C118.831 134.202 118.826 142.995 124.218 149.126C126.371 151.576 126.236 153.016 123.654 154.938ZM110.142 6.37782C110.142 7.01847 110.142 7.56508 110.142 8.10582C110.142 16.3109 110.142 24.5218 110.142 32.7268C110.142 35.0955 110.136 37.4582 110.142 39.8269C110.142 41.1728 109.561 42.1838 108.352 42.7245C107.156 43.2652 105.988 43.0713 104.985 42.1896C103.401 40.7967 101.828 39.3802 100.244 37.9813C99.4284 37.2584 98.6011 36.5531 97.7445 35.8066C95.38 37.9049 93.1211 39.9033 90.8856 41.9193C89.9293 42.7774 88.8849 43.2476 87.5823 42.8891C86.0921 42.4718 85.3469 41.2669 85.3469 39.2215C85.3469 28.8476 85.3469 18.4738 85.3469 8.09994C85.3469 7.52394 85.3469 6.94794 85.3469 6.42484H30.1007V122.265H31.8433C41.2368 122.265 50.6362 122.265 60.0297 122.265C60.5342 122.265 61.0388 122.236 61.5375 122.289C63.0806 122.453 64.2717 123.723 64.2834 125.198C64.2952 126.726 63.2273 128.066 61.737 128.307C61.1972 128.395 60.634 128.36 60.0825 128.36C45.913 128.36 31.7436 128.348 17.5741 128.384C16.2364 128.384 14.8458 128.519 13.5726 128.907C8.78493 130.376 5.83369 135.172 6.5847 140.045C7.39438 145.305 11.5367 148.879 16.9698 148.879C49.7795 148.896 82.5893 148.885 115.399 148.879C115.763 148.879 116.132 148.826 116.614 148.785C113.334 141.92 113.41 135.178 116.625 128.354C110.67 128.354 104.944 128.354 99.2171 128.354C95.6498 128.354 92.0825 128.354 88.5152 128.354C87.2479 128.354 86.2798 127.808 85.699 126.679C85.1533 125.609 85.036 124.369 85.9454 123.599C86.7433 122.918 87.9285 122.33 88.9494 122.324C98.5424 122.23 108.141 122.265 117.74 122.265C118.321 122.265 118.908 122.265 119.524 122.265V6.37782H110.148H110.142ZM23.7465 6.3308C21.5521 6.3308 19.5455 6.3308 17.5389 6.3308C10.7915 6.34256 6.49669 10.5979 6.49669 17.3453C6.48496 52.9338 6.49669 88.5164 6.49669 124.105C6.49669 124.569 6.5495 125.033 6.6023 125.845C11.8183 121.366 17.8733 122.365 23.7523 122.236V6.3308H23.7465ZM103.952 33.103V6.37194H91.5721V33.1206C93.0096 31.8393 94.23 30.7226 95.4797 29.647C97.0932 28.2599 98.4368 28.2658 100.044 29.647C101.3 30.7226 102.52 31.8393 103.946 33.103H103.952Z" fill="black"/>
<path d="M74.0231 82.0804C74.0231 83.8319 73.055 85.0427 71.5882 85.3719C70.2211 85.6834 68.7837 84.9604 68.1793 83.5087C67.4049 81.6573 66.6891 79.7765 66.0495 77.8721C65.7327 76.92 65.2809 76.5262 64.2307 76.5379C59.2611 76.5908 54.2856 76.585 49.3161 76.5379C48.3714 76.5321 47.861 76.8142 47.5559 77.7369C46.9457 79.5472 46.2534 81.3222 45.5434 83.0973C44.7748 85.0251 43.173 85.8362 41.5009 85.2014C39.7466 84.5373 39.0601 82.8563 39.817 80.8462C44.2291 69.1969 48.6648 57.5594 53.0829 45.916C53.74 44.188 54.9545 43.1947 56.8086 43.1242C58.4631 43.0595 59.883 44.0881 60.5578 45.8807C64.9582 57.5359 69.3352 69.1969 73.7122 80.8579C73.8882 81.3222 73.9645 81.8218 74.0231 82.0628V82.0804ZM50.4191 70.2725H63.1511C61.0447 64.6653 58.9912 59.2051 56.8203 53.4333C54.6318 59.1875 52.5607 64.6418 50.4191 70.2725Z" fill="black"/>
<path d="M103.917 57.5124C104.809 54.797 107.015 53.7155 108.798 55.1966C109.479 55.7609 110.066 56.8659 110.077 57.7357C110.171 65.8879 110.148 74.04 110.13 82.198C110.13 83.926 109.086 85.1427 107.525 85.4072C106.105 85.6482 104.779 84.79 104.146 83.2266C104.058 83.0033 103.987 82.774 103.911 82.5331C95.2333 88.1637 86.8137 84.7254 82.7536 79.6531C78.1537 73.9048 78.2827 65.5999 83.0118 60.0397C87.465 54.8029 95.9315 52.1874 103.911 57.5124H103.917ZM104.011 70.0022C104.011 64.9475 99.8743 60.7686 94.8402 60.7274C89.7474 60.6863 85.5229 64.8887 85.5112 70.0022C85.5053 75.0451 89.6359 79.224 94.6876 79.2828C99.7511 79.3474 104.011 75.1039 104.011 69.9963V70.0022Z" fill="black"/>
<path d="M71.7642 125.221C71.7583 123.629 73.096 122.312 74.7624 122.277C76.3935 122.242 77.8192 123.558 77.8485 125.133C77.8837 126.908 76.4815 128.378 74.7741 128.354C73.1254 128.331 71.77 126.92 71.7642 125.221Z" fill="black"/>
</svg>
