<svg width="108" height="117" viewBox="0 0 108 117" fill="none" xmlns="http://www.w3.org/2000/svg">
<path d="M55.2901 0.690552C57.2979 0.983458 59.3183 1.21506 61.3135 1.58289C82.2822 5.44517 99.2692 23.2829 103.321 45.7073C105.795 59.3967 103.857 72.3436 97.5021 84.5049C97.139 85.202 97.1094 85.7378 97.4155 86.4758C100.796 94.5954 104.144 102.731 107.488 110.869C108.576 113.516 107.505 116.152 105.067 116.582C104.226 116.729 103.249 116.486 102.423 116.159C94.3374 112.942 86.2661 109.681 78.2054 106.396C77.4834 106.1 76.9303 106.132 76.242 106.514C54.8848 118.339 29.4212 113.35 13.3209 94.0732C6.03506 85.3495 1.77037 75.0774 0.469852 63.4111C0.355845 62.3689 0.212281 61.3312 0.0834961 60.2913C0.0834961 58.0253 0.0834961 55.7592 0.0834961 53.4932C0.142611 53.1685 0.233394 52.8438 0.254506 52.5168C0.695754 45.9003 2.12295 39.529 4.78521 33.5574C12.6221 15.9943 25.4521 5.28396 43.2603 1.57154C45.2132 1.16511 47.2062 0.978917 49.1802 0.690552C51.2175 0.690552 53.2549 0.690552 55.2901 0.690552ZM104.351 112.835C104.102 112.188 103.977 111.845 103.838 111.509C100.449 103.31 97.0735 95.104 93.6533 86.9208C93.1593 85.7378 93.1846 84.7706 93.8138 83.6375C99.0729 74.1601 101.416 63.9038 100.62 52.8846C99.6598 39.5744 94.7554 28.1647 85.7615 18.9756C71.1096 4.00561 50.3899 0.0434327 32.0771 9.19619C15.0859 17.6882 5.56003 32.413 3.75915 52.4691C2.51352 66.3311 6.26941 78.8579 14.4568 89.6773C22.9249 100.867 33.9709 107.184 47.2843 108.725C57.3 109.886 66.7604 107.722 75.5981 102.508C76.5038 101.975 77.3208 101.907 78.2941 102.306C84.0894 104.684 89.9017 107.013 95.7076 109.357C98.488 110.478 101.273 111.595 104.351 112.833V112.835Z" fill="black"/>
<path d="M104.351 112.835C101.273 111.598 98.4881 110.48 95.7076 109.359C89.8996 107.015 84.0895 104.686 78.2941 102.309C77.323 101.909 76.5059 101.977 75.5981 102.511C66.7605 107.724 57.2979 109.888 47.2843 108.727C33.9709 107.183 22.9249 100.867 14.4568 89.6795C6.26943 78.8601 2.51354 66.3333 3.75917 52.4713C5.56005 32.4152 15.0859 17.6904 32.0771 9.19839C50.39 0.0433631 71.1096 4.00554 85.7616 18.9756C94.7554 28.1646 99.6598 39.5744 100.62 52.8846C101.416 63.906 99.0729 74.16 93.8138 83.6375C93.1846 84.7705 93.1593 85.7377 93.6534 86.9207C97.0735 95.1039 100.449 103.31 103.838 111.509C103.977 111.845 104.1 112.186 104.351 112.835ZM35.4361 84.2914C35.8731 84.5593 36.1391 84.7137 36.3946 84.8817C48.6862 92.9832 64.9406 90.5128 74.6755 79.0599C75.8979 77.6227 76.0541 76.535 75.1653 75.6404C74.2596 74.7299 73.3264 75.0047 72.0385 76.4192C64.303 84.9113 55.0642 87.6065 44.4194 84.4912C42.3989 83.9008 40.5052 82.8155 38.5523 81.9595C38.5966 81.8255 38.6388 81.6916 38.6832 81.5599C39.6459 81.6961 40.6086 81.8414 41.5735 81.9663C42.646 82.1025 43.5369 81.4577 43.7079 80.4405C43.9 79.3029 43.3047 78.4151 42.1709 78.1631C41.8627 78.0949 41.5502 78.0405 41.2357 77.9973C38.2103 77.5727 35.1828 77.164 32.1595 76.7281C30.2931 76.4578 29.3093 77.693 29.9553 79.5958C31.0849 82.9222 32.2481 86.2373 33.4157 89.5501C33.8696 90.8375 34.788 91.3597 35.7845 90.9624C36.8422 90.5401 37.2138 89.5069 36.7662 88.1627C36.3566 86.9321 35.9259 85.7105 35.4382 84.2937L35.4361 84.2914ZM70.377 30.3035C69.9527 30.0084 69.8049 29.9085 69.6634 29.804C58.5267 21.5277 43.9697 21.9591 33.3481 30.8984C32.3833 31.7113 31.467 32.6014 30.5972 33.53C29.8815 34.293 29.8772 35.3374 30.4599 36.0981C31.03 36.8428 32.0687 37.0245 32.8372 36.4705C33.1539 36.2411 33.4114 35.921 33.7028 35.6485C42.4285 27.4676 52.1951 25.5784 62.9708 30.1605C64.5669 30.8394 66.0215 31.8998 67.5416 32.7853C67.4973 32.9102 67.4551 33.0328 67.4107 33.1577C66.391 33.0237 65.3713 32.8943 64.3537 32.758C63.165 32.5968 62.2699 33.2485 62.1094 34.402C61.968 35.4237 62.6161 36.2979 63.7034 36.5431C63.9779 36.6044 64.2565 36.6544 64.5331 36.6953C67.5944 37.1289 70.6557 37.549 73.7149 37.994C75.539 38.2597 76.5502 36.9655 75.9084 35.0968C74.7663 31.7726 73.5966 28.4598 72.4228 25.1493C71.9499 23.8119 71.0062 23.267 69.9928 23.6938C68.9752 24.123 68.6226 25.1924 69.0744 26.5321C69.465 27.6901 69.8745 28.8435 70.3791 30.3013L70.377 30.3035ZM70.2229 49.0019C69.7352 49.0019 69.3594 49.0019 68.9836 49.0019C66.4902 49.0019 63.9969 48.986 61.5056 49.0087C60.0995 49.02 59.2994 49.9283 59.4662 51.2407C59.5992 52.2874 60.2916 52.8596 61.5309 52.8641C65.8843 52.8778 70.2377 52.8709 74.5931 52.8709C74.9542 52.8709 75.3173 52.8709 75.6783 52.8709C75.7311 52.9799 75.7839 53.0889 75.8367 53.1979C74.3271 55.2573 72.8176 57.3168 71.2067 59.517C70.7127 58.8017 70.3475 58.2591 69.9716 57.7277C69.2792 56.7468 68.2278 56.5107 67.3959 57.1374C66.5514 57.7732 66.4016 58.8608 67.0434 59.9348C67.472 60.65 67.9428 61.338 68.4262 62.0873C67.7042 62.6958 67.075 63.302 66.3783 63.7993C65.006 64.7779 63.5978 65.6998 62.2023 66.6421C61.4824 67.128 61.0812 67.8069 61.267 68.731C61.4359 69.5802 61.949 70.1933 62.7723 70.2319C63.2621 70.2546 63.8322 70.0866 64.2523 69.805C66.5388 68.2701 68.7872 66.6761 71.1244 65.0481C71.2384 65.1548 71.4558 65.4091 71.7176 65.584C73.9661 67.103 76.1913 68.6652 78.4926 70.0866C79.392 70.6429 80.361 70.1411 80.798 69.1942C81.233 68.2497 80.9437 67.2551 80.0401 66.6716C79.7403 66.4786 79.4089 66.3469 79.0943 66.1811C77.1097 65.1435 75.2687 63.8856 73.8458 62.4074C75.6825 59.6804 77.5594 57.1351 79.1597 54.4013C79.8649 53.1979 80.5531 52.6575 81.8009 52.8709C81.9043 52.8891 82.012 52.8732 82.1176 52.8709C83.777 52.8619 84.575 52.2465 84.5856 50.9659C84.5962 49.6898 83.7559 49.0064 82.1492 49.0041C79.7614 48.9996 77.3736 49.0041 74.9858 49.0041C74.6164 49.0041 74.249 49.0041 73.8204 49.0041C73.8204 47.7371 73.831 46.645 73.8183 45.5551C73.8014 44.0974 73.1469 43.2618 72.0343 43.2482C70.9048 43.2346 70.244 44.052 70.2292 45.5051C70.2187 46.6291 70.2271 47.7508 70.2271 49.0041L70.2229 49.0019ZM45.0084 68.1725C44.9345 67.9477 44.8395 67.5072 44.6559 67.1098C41.1955 59.6532 37.7205 52.2057 34.2644 44.7468C33.8717 43.8976 33.3291 43.3072 32.4234 43.3118C31.5155 43.3163 30.9877 43.9225 30.5972 44.7695C27.1601 52.1966 23.704 59.6123 20.2563 67.0349C19.604 68.4427 19.8109 69.4939 20.8285 70.0593C21.844 70.6247 22.8004 70.1774 23.4485 68.8037C24.3036 66.9872 25.1713 65.1753 25.9757 63.3316C26.2417 62.7208 26.5774 62.5391 27.1812 62.5437C30.6225 62.5732 34.0638 62.5891 37.5051 62.5346C38.2968 62.521 38.6811 62.798 39.0062 63.5518C39.8169 65.4319 40.7079 67.2756 41.5819 69.1238C42.0168 70.0434 42.7367 70.4658 43.672 70.2114C44.5017 69.9867 44.9641 69.3486 45.0105 68.1725H45.0084ZM39.4707 10.4132C39.211 10.4904 38.8352 10.5834 38.4721 10.7151C26.9637 14.9294 18.276 22.7629 12.5145 34.2771C9.09637 41.1047 7.40949 48.4456 7.25959 56.1928C7.23004 57.7164 7.88452 58.636 8.98658 58.6814C10.1224 58.7291 10.8022 57.814 10.8508 56.2133C10.8761 55.3459 10.912 54.4785 10.9944 53.6157C12.6031 36.6044 20.5139 24.2297 34.6972 16.5301C36.4389 15.5833 38.3369 14.9702 40.1568 14.1891C41.1533 13.7623 41.6199 12.8813 41.3708 11.8641C41.1364 10.8991 40.5031 10.4495 39.4707 10.4109V10.4132ZM50.8565 8.40368C50.8565 8.38097 50.8523 8.35827 50.8502 8.33556C49.4251 8.49223 47.9958 8.59895 46.5792 8.8192C45.5574 8.97814 44.9535 9.88638 45.0612 10.89C45.171 11.914 45.95 12.6701 46.9423 12.6156C48.7559 12.518 50.5673 12.3886 52.3787 12.2296C53.3161 12.1479 53.9981 11.3123 54.0128 10.3496C54.0276 9.34371 53.3119 8.49904 52.3239 8.41049C51.8383 8.36735 51.3464 8.40368 50.8565 8.40368Z" fill="#5F259E"/>
<path d="M35.436 84.2915C35.9237 85.7083 36.3544 86.9299 36.764 88.1606C37.2116 89.5048 36.84 90.5379 35.7823 90.9602C34.7858 91.3576 33.8674 90.8353 33.4135 89.5479C32.246 86.2351 31.0848 82.9201 29.9532 79.5936C29.3071 77.6909 30.2889 76.458 32.1573 76.7259C35.1806 77.1618 38.2081 77.5728 41.2335 77.9951C41.5459 78.0383 41.8584 78.0928 42.1688 78.1609C43.3025 78.4107 43.8979 79.2985 43.7057 80.4383C43.5347 81.4533 42.6417 82.1004 41.5713 81.9641C40.6064 81.8415 39.6458 81.6939 38.681 81.5577C38.6367 81.6917 38.5944 81.8256 38.5501 81.9573C40.503 82.8133 42.3968 83.8987 44.4172 84.489C55.0621 87.6043 64.3008 84.9091 72.0364 76.4171C73.3263 75.0025 74.2574 74.7278 75.1631 75.6383C76.0519 76.5306 75.8957 77.6182 74.6733 79.0578C64.9384 90.5107 48.684 92.9811 36.3924 84.8796C36.137 84.7116 35.871 84.5572 35.4339 84.2892L35.436 84.2915Z" fill="black"/>
<path d="M70.3769 30.3013C69.8723 28.8436 69.4627 27.6924 69.0721 26.5321C68.6203 25.1924 68.9729 24.123 69.9905 23.6939C71.0039 23.267 71.9476 23.8119 72.4206 25.1493C73.5944 28.4598 74.764 31.7726 75.9062 35.0968C76.548 36.9655 75.5367 38.2597 73.7126 37.994C70.6535 37.549 67.5901 37.1289 64.5309 36.6953C64.2522 36.6567 63.9756 36.6067 63.7012 36.5431C62.6139 36.2979 61.9657 35.4237 62.1072 34.402C62.2676 33.2485 63.1628 32.5968 64.3514 32.7581C65.3712 32.8966 66.3909 33.026 67.4085 33.1577C67.4528 33.0328 67.4951 32.9102 67.5394 32.7853C66.0193 31.902 64.5647 30.8394 62.9686 30.1605C52.1928 25.5784 42.4263 27.4676 33.7006 35.6485C33.4092 35.921 33.1516 36.2411 32.8349 36.4705C32.0686 37.0245 31.0277 36.8429 30.4577 36.0981C29.875 35.3375 29.8792 34.293 30.5949 33.5301C31.4648 32.6014 32.381 31.7113 33.3459 30.8984C43.9675 21.9569 58.5244 21.5277 69.6612 29.804C69.8047 29.9107 69.9525 30.0084 70.3748 30.3035L70.3769 30.3013Z" fill="black"/>
<path d="M70.2249 49.0018C70.2249 47.7485 70.2165 46.6268 70.227 45.5029C70.2418 44.0497 70.9026 43.2323 72.0321 43.2459C73.1447 43.2595 73.7992 44.0951 73.8161 45.5528C73.8288 46.6427 73.8182 47.7349 73.8182 49.0018C74.2468 49.0018 74.6142 49.0018 74.9836 49.0018C77.3714 49.0018 79.7592 48.9996 82.147 49.0018C83.7516 49.0041 84.594 49.6853 84.5834 50.9636C84.5728 52.2443 83.7748 52.8596 82.1154 52.8687C82.0098 52.8687 81.9021 52.8846 81.7987 52.8687C80.5509 52.6575 79.8627 53.1956 79.1575 54.399C77.5572 57.1328 75.6782 59.6782 73.8436 62.4051C75.2665 63.8833 77.1096 65.1412 79.0921 66.1789C79.4067 66.3446 79.7402 66.4763 80.0379 66.6693C80.9415 67.2529 81.2308 68.2474 80.7958 69.1919C80.3588 70.1388 79.3898 70.6406 78.4904 70.0843C76.1891 68.6629 73.9639 67.1007 71.7154 65.5817C71.4536 65.4046 71.2383 65.1503 71.1222 65.0458C68.785 66.6716 66.5366 68.2678 64.2501 69.8027C63.8321 70.0843 63.2621 70.2523 62.7701 70.2296C61.9468 70.1933 61.4358 69.5779 61.2648 68.7287C61.079 67.8046 61.4802 67.1257 62.2001 66.6398C63.5956 65.6975 65.0038 64.7779 66.3761 63.797C67.0728 63.2998 67.702 62.6935 68.424 62.085C67.9384 61.3334 67.4676 60.6477 67.0412 59.9325C66.3993 58.8585 66.5492 57.7709 67.3937 57.1351C68.2256 56.5084 69.2791 56.7468 69.9694 57.7255C70.3452 58.2568 70.7105 58.7972 71.2045 59.5147C72.8154 57.3145 74.3249 55.2551 75.8344 53.1956C75.7817 53.0866 75.7289 52.9777 75.6761 52.8687C75.3151 52.8687 74.952 52.8687 74.5909 52.8687C70.2376 52.8687 65.8842 52.8755 61.5287 52.8619C60.2894 52.8573 59.597 52.2851 59.464 51.2384C59.2972 49.926 60.0973 49.0177 61.5034 49.0064C63.9968 48.9837 66.4901 48.9996 68.9814 48.9996C69.3572 48.9996 69.733 48.9996 70.2207 48.9996L70.2249 49.0018Z" fill="black"/>
<path d="M45.0105 68.1702C44.9641 69.3486 44.4996 69.9844 43.672 70.2092C42.7388 70.4612 42.0168 70.0412 41.5819 69.1216C40.7078 67.271 39.8169 65.4296 39.0062 63.5495C38.681 62.798 38.2968 62.5209 37.5051 62.5323C34.0638 62.5868 30.6225 62.5709 27.1812 62.5414C26.5773 62.5368 26.2417 62.7162 25.9756 63.3293C25.1713 65.173 24.3057 66.9849 23.4485 68.8014C22.8003 70.1751 21.844 70.6247 20.8285 70.057C19.8108 69.4894 19.6018 68.4381 20.2563 67.0326C23.7018 59.6101 27.16 52.1943 30.5971 44.7672C30.9898 43.9203 31.5155 43.3163 32.4233 43.3095C33.3312 43.3049 33.8717 43.893 34.2643 44.7445C37.7204 52.2034 41.1955 59.6509 44.6558 67.1075C44.8395 67.5026 44.9366 67.9454 45.0084 68.1702H45.0105ZM36.707 58.6632C35.2524 55.5343 33.8801 52.5848 32.4339 49.4787C30.9772 52.6144 29.5964 55.5866 28.1692 58.6632H36.707Z" fill="black"/>
<path d="M39.4728 10.4109C40.5052 10.4472 41.1364 10.8968 41.3729 11.8641C41.622 12.8813 41.1554 13.7623 40.1589 14.1892C38.3391 14.9702 36.4411 15.5856 34.6993 16.5301C20.516 24.2297 12.6052 36.6044 10.9965 53.6157C10.9141 54.4785 10.8804 55.3459 10.8529 56.2133C10.8044 57.8118 10.1245 58.7291 8.98869 58.6814C7.88663 58.636 7.23215 57.7164 7.2617 56.1928C7.4116 48.4433 9.10059 41.1047 12.5166 34.2771C18.2802 22.7629 26.9658 14.9294 38.4742 10.7151C38.8373 10.5835 39.211 10.4904 39.4728 10.4132V10.4109Z" fill="black"/>
<path d="M50.8565 8.40381C51.3464 8.40381 51.8383 8.36748 52.3239 8.41062C53.3119 8.49918 54.0276 9.34384 54.0128 10.3497C54.0002 11.3124 53.3161 12.148 52.3787 12.2298C50.5694 12.3887 48.7559 12.5181 46.9423 12.6158C45.9479 12.6703 45.171 11.9141 45.0612 10.8901C44.9535 9.88651 45.5552 8.97827 46.5792 8.81933C47.9958 8.59908 49.4251 8.49236 50.8502 8.33569C50.8523 8.3584 50.8544 8.38111 50.8565 8.40381Z" fill="black"/>
<path d="M36.707 58.6634H28.1692C29.5985 55.5868 30.9792 52.6123 32.4339 49.4789C33.878 52.5851 35.2503 55.5346 36.707 58.6634Z" fill="#00D100"/>
</svg>
