<svg width="72" height="71" viewBox="0 0 72 71" fill="none" xmlns="http://www.w3.org/2000/svg">
<g clip-path="url(#clip0_3048_1325)">
<path d="M49.9089 70.8098L49.8787 70.8136" stroke="black" stroke-miterlimit="10"/>
<path d="M36.0898 66.7734C35.2644 66.8368 34.4315 66.8666 33.5912 66.8666C15.9927 66.8666 1.57252 53.289 0.280273 36.0552H5.10567C6.34563 52.5175 19.5632 65.6441 36.0898 66.7734Z" fill="black" stroke="#1D1E1B" stroke-miterlimit="10"/>
<path d="M66.9954 33.532C66.9954 51.105 53.3707 65.4988 36.0897 66.7735C19.5631 65.6442 6.3455 52.5176 5.10554 36.0552H0.280138C0.220381 35.2241 0.186768 34.3818 0.186768 33.532C0.186768 15.1242 15.141 0.201172 33.5911 0.201172C34.3604 0.201172 35.1223 0.227261 35.8768 0.27944C53.2587 1.44973 66.9954 15.892 66.9954 33.532Z" fill="#00D100" stroke="black" stroke-miterlimit="10"/>
<path d="M71.8131 33.5209C71.8131 51.9287 56.8589 66.8555 38.4089 66.8555C37.6283 66.8555 36.8552 66.8294 36.0895 66.7735C19.5629 65.6442 6.34537 52.5176 5.10541 36.0553C5.04191 35.2204 5.0083 34.3744 5.0083 33.5209C5.0083 15.9591 18.6143 1.57274 35.8766 0.279455C36.7132 0.219823 37.5573 0.186279 38.4089 0.186279C56.8589 0.186279 71.8131 15.1093 71.8131 33.5209Z" fill="#00D100" stroke="black" stroke-miterlimit="10"/>
<path d="M17.621 27.7812C34.1962 36.0738 34.8909 38.0901 26.7751 60.8511C26.7415 60.9518 26.917 61.0226 26.9618 60.9257C37.0907 38.9809 38.9992 38.0268 56.6649 43.6471C56.7807 43.6844 56.8367 43.5502 56.7284 43.4943C40.1532 35.2017 39.4586 33.1854 47.5743 10.4244C47.608 10.3237 47.4324 10.2529 47.3876 10.3498C37.2587 32.2946 35.3502 33.2487 17.6845 27.6283C17.5687 27.5911 17.5127 27.7253 17.621 27.7812Z" fill="url(#paint0_radial_3048_1325)"/>
<path d="M19.6937 11.1811C25.6172 14.1441 25.8674 14.8671 22.9654 22.9995C22.9542 23.0368 23.014 23.0591 23.0327 23.0256C26.6517 15.1839 27.3352 14.841 33.6471 16.8499C33.6881 16.8648 33.7068 16.8164 33.6695 16.7977C27.746 13.8347 27.4958 13.1117 30.3978 4.9793C30.409 4.94203 30.3492 4.91966 30.3305 4.95321C26.7115 12.7949 26.028 13.1378 19.7161 11.1289C19.6751 11.114 19.6564 11.1624 19.6937 11.1811Z" fill="url(#paint1_radial_3048_1325)"/>
<path d="M37.3333 53.2369C41.4005 55.2719 41.5686 55.7639 39.5779 61.3507C39.5704 61.3768 39.6115 61.3917 39.6227 61.3693C42.1064 55.9875 42.577 55.7527 46.9094 57.1317C46.9392 57.1391 46.9504 57.1093 46.9243 57.0944C42.8571 55.0594 42.689 54.5675 44.6797 48.9844C44.6871 48.9583 44.6461 48.9434 44.6348 48.9657C42.1512 54.3476 41.6806 54.5824 37.3482 53.2034C37.3183 53.1959 37.3071 53.2257 37.3333 53.2407V53.2369Z" fill="url(#paint2_radial_3048_1325)"/>
<path d="M50.9168 31.4933C54.4462 33.2599 54.5956 33.6885 52.8664 38.5374C52.8589 38.5597 52.8963 38.5746 52.9075 38.5523C55.0662 33.8786 55.4733 33.6736 59.2343 34.87C59.2604 34.8774 59.2716 34.8476 59.2492 34.8364C55.7198 33.0698 55.5704 32.6412 57.2996 27.7923C57.3071 27.77 57.2697 27.7551 57.2585 27.7774C55.0998 32.4511 54.6927 32.6561 50.9317 31.4597C50.9056 31.4523 50.8944 31.4821 50.9168 31.4933Z" fill="url(#paint3_radial_3048_1325)"/>
</g>
<defs>
<radialGradient id="paint0_radial_3048_1325" cx="0" cy="0" r="1" gradientUnits="userSpaceOnUse" gradientTransform="translate(37.1728 35.6377) scale(22.6816 22.6343)">
<stop stop-color="#7C00A3"/>
<stop offset="0.06" stop-color="#78029E"/>
<stop offset="0.13" stop-color="#6E0A92"/>
<stop offset="0.19" stop-color="#5D177E"/>
<stop offset="0.22" stop-color="#551E74"/>
<stop offset="0.49" stop-color="#282927"/>
</radialGradient>
<radialGradient id="paint1_radial_3048_1325" cx="0" cy="0" r="1" gradientUnits="userSpaceOnUse" gradientTransform="translate(26.6816 13.9913) scale(8.10831 8.09139)">
<stop stop-color="#7C00A3"/>
<stop offset="0.06" stop-color="#78029E"/>
<stop offset="0.13" stop-color="#6E0A92"/>
<stop offset="0.19" stop-color="#5D177E"/>
<stop offset="0.22" stop-color="#551E74"/>
<stop offset="0.49" stop-color="#282927"/>
</radialGradient>
<radialGradient id="paint2_radial_3048_1325" cx="0" cy="0" r="1" gradientUnits="userSpaceOnUse" gradientTransform="translate(42.1288 55.1638) scale(5.56489 5.55328)">
<stop stop-color="#7C00A3"/>
<stop offset="0.06" stop-color="#78029E"/>
<stop offset="0.13" stop-color="#6E0A92"/>
<stop offset="0.19" stop-color="#5D177E"/>
<stop offset="0.22" stop-color="#551E74"/>
<stop offset="0.49" stop-color="#282927"/>
</radialGradient>
<radialGradient id="paint3_radial_3048_1325" cx="0" cy="0" r="1" gradientUnits="userSpaceOnUse" gradientTransform="translate(55.0849 33.1667) scale(4.83287 4.82278)">
<stop stop-color="#7C00A3"/>
<stop offset="0.06" stop-color="#78029E"/>
<stop offset="0.13" stop-color="#6E0A92"/>
<stop offset="0.19" stop-color="#5D177E"/>
<stop offset="0.22" stop-color="#551E74"/>
<stop offset="0.49" stop-color="#282927"/>
</radialGradient>
<clipPath id="clip0_3048_1325">
<rect width="72" height="71" fill="white"/>
</clipPath>
</defs>
</svg>
