<svg width="63" height="62" viewBox="0 0 63 62" fill="none" xmlns="http://www.w3.org/2000/svg">
<path d="M43.3791 60.7965L43.3535 60.7997" stroke="#1D1D1B" stroke-width="0.846693" stroke-miterlimit="10"/>
<path d="M31.6783 57.3789C30.9795 57.4326 30.2743 57.4578 29.5628 57.4578C14.6622 57.4578 2.45278 45.9617 1.35864 31.37H5.44427C6.49414 45.3085 17.6854 56.4227 31.6783 57.3789Z" fill="#1D1D1B" stroke="#1D1E1B" stroke-width="0.846693" stroke-miterlimit="10"/>
<path d="M57.8459 29.2336C57.8459 44.1125 46.31 56.2997 31.6783 57.3789C17.6853 56.4228 6.4941 45.3085 5.44423 31.37H1.3586C1.308 30.6663 1.27954 29.9531 1.27954 29.2336C1.27954 13.6478 13.9412 1.0126 29.5627 1.0126C30.2142 1.0126 30.8593 1.03469 31.498 1.07887C46.2152 2.06975 57.8459 14.2979 57.8459 29.2336Z" fill="#00D100" stroke="#1D1D1B" stroke-width="0.846693" stroke-miterlimit="10"/>
<path d="M61.9253 29.2242C61.9253 44.81 49.2636 57.4484 33.6421 57.4484C32.9812 57.4484 32.3266 57.4263 31.6783 57.3789C17.6854 56.4228 6.49415 45.3086 5.44428 31.37C5.39052 30.6632 5.36206 29.9468 5.36206 29.2242C5.36206 14.3547 16.8821 2.1739 31.4981 1.07889C32.2064 1.0284 32.9211 1 33.6421 1C49.2636 1 61.9253 13.6352 61.9253 29.2242Z" fill="#00D100" stroke="#1D1D1B" stroke-width="0.846693" stroke-miterlimit="10"/>
<path d="M16.0411 24.3644C30.0752 31.3858 30.6633 33.093 23.7918 52.3646C23.7633 52.4498 23.9119 52.5097 23.9499 52.4277C32.5259 33.8472 34.1418 33.0393 49.0993 37.7981C49.1973 37.8296 49.2447 37.716 49.153 37.6687C35.119 30.6474 34.5308 28.9401 41.4024 9.66856C41.4308 9.58335 41.2822 9.5234 41.2442 9.60544C32.6682 28.1859 31.0523 28.9938 16.0948 24.2351C15.9968 24.2035 15.9494 24.3171 16.0411 24.3644Z" fill="url(#paint0_radial_3048_1609)"/>
<path d="M17.7961 10.3092C22.8115 12.8179 23.0233 13.4301 20.5663 20.3158C20.5568 20.3473 20.6074 20.3662 20.6232 20.3378C23.6874 13.6983 24.2661 13.408 29.6103 15.1089C29.6451 15.1215 29.6609 15.0805 29.6293 15.0647C24.6139 12.556 24.4021 11.9438 26.8591 5.05816C26.8686 5.02661 26.818 5.00767 26.8022 5.03607C23.738 11.6756 23.1593 11.9659 17.8151 10.265C17.7803 10.2524 17.7645 10.2934 17.7961 10.3092Z" fill="url(#paint1_radial_3048_1609)"/>
<path d="M32.7314 45.9176C36.1751 47.6406 36.3174 48.0571 34.6319 52.7874C34.6256 52.8095 34.6604 52.8222 34.6699 52.8032C36.7728 48.2465 37.1712 48.0476 40.8394 49.2152C40.8647 49.2215 40.8742 49.1963 40.8521 49.1837C37.4084 47.4607 37.2661 47.0441 38.9516 42.317C38.9579 42.2949 38.9231 42.2823 38.9136 42.3012C36.8107 46.858 36.4123 47.0568 32.7441 45.8892C32.7188 45.8829 32.7093 45.9081 32.7314 45.9207V45.9176Z" fill="url(#paint2_radial_3048_1609)"/>
<path d="M44.2326 27.5075C47.2209 29.0033 47.3474 29.3662 45.8833 33.4717C45.877 33.4906 45.9086 33.5032 45.9181 33.4843C47.7458 29.5271 48.0905 29.3535 51.2749 30.3665C51.2971 30.3728 51.3065 30.3476 51.2876 30.3381C48.2992 28.8423 48.1728 28.4794 49.6369 24.3739C49.6432 24.355 49.6116 24.3424 49.6021 24.3613C47.7743 28.3185 47.4296 28.492 44.2452 27.4791C44.2231 27.4728 44.2136 27.498 44.2326 27.5075Z" fill="url(#paint3_radial_3048_1609)"/>
<defs>
<radialGradient id="paint0_radial_3048_1609" cx="0" cy="0" r="1" gradientUnits="userSpaceOnUse" gradientTransform="translate(32.5955 31.0166) scale(19.2044 19.1643)">
<stop stop-color="#7C00A3"/>
<stop offset="0.06" stop-color="#78029E"/>
<stop offset="0.13" stop-color="#6E0A92"/>
<stop offset="0.19" stop-color="#5D177E"/>
<stop offset="0.22" stop-color="#551E74"/>
<stop offset="0.49" stop-color="#282927"/>
</radialGradient>
<radialGradient id="paint1_radial_3048_1609" cx="0" cy="0" r="1" gradientUnits="userSpaceOnUse" gradientTransform="translate(23.7127 12.6885) scale(6.86525 6.85093)">
<stop stop-color="#7C00A3"/>
<stop offset="0.06" stop-color="#78029E"/>
<stop offset="0.13" stop-color="#6E0A92"/>
<stop offset="0.19" stop-color="#5D177E"/>
<stop offset="0.22" stop-color="#551E74"/>
<stop offset="0.49" stop-color="#282927"/>
</radialGradient>
<radialGradient id="paint2_radial_3048_1609" cx="0" cy="0" r="1" gradientUnits="userSpaceOnUse" gradientTransform="translate(36.7917 47.5491) scale(4.71176 4.70193)">
<stop stop-color="#7C00A3"/>
<stop offset="0.06" stop-color="#78029E"/>
<stop offset="0.13" stop-color="#6E0A92"/>
<stop offset="0.19" stop-color="#5D177E"/>
<stop offset="0.22" stop-color="#551E74"/>
<stop offset="0.49" stop-color="#282927"/>
</radialGradient>
<radialGradient id="paint3_radial_3048_1609" cx="0" cy="0" r="1" gradientUnits="userSpaceOnUse" gradientTransform="translate(47.7617 28.9244) scale(4.09196 4.08342)">
<stop stop-color="#7C00A3"/>
<stop offset="0.06" stop-color="#78029E"/>
<stop offset="0.13" stop-color="#6E0A92"/>
<stop offset="0.19" stop-color="#5D177E"/>
<stop offset="0.22" stop-color="#551E74"/>
<stop offset="0.49" stop-color="#282927"/>
</radialGradient>
</defs>
</svg>
