<svg width="63" height="62" viewBox="0 0 63 62" fill="none" xmlns="http://www.w3.org/2000/svg">
<path d="M43.2397 60.7965L43.2141 60.7997" stroke="#1D1D1B" stroke-width="0.846693" stroke-miterlimit="10"/>
<path d="M31.5389 57.3789C30.8401 57.4326 30.1349 57.4578 29.4234 57.4578C14.5228 57.4578 2.31338 45.9617 1.21924 31.37H5.30487C6.35474 45.3085 17.546 56.4227 31.5389 57.3789Z" fill="#1D1D1B" stroke="#1D1E1B" stroke-width="0.846693" stroke-miterlimit="10"/>
<path d="M57.7068 29.2336C57.7068 44.1125 46.1709 56.2997 31.5391 57.3789C17.5462 56.4228 6.35494 45.3085 5.30507 31.37H1.21944C1.16884 30.6663 1.14038 29.9531 1.14038 29.2336C1.14038 13.6478 13.802 1.0126 29.4236 1.0126C30.075 1.0126 30.7201 1.03469 31.3589 1.07887C46.076 2.06975 57.7068 14.2979 57.7068 29.2336Z" fill="#5F259E" stroke="#1D1D1B" stroke-width="0.846693" stroke-miterlimit="10"/>
<path d="M61.7861 29.2242C61.7861 44.81 49.1245 57.4484 33.5029 57.4484C32.842 57.4484 32.1874 57.4263 31.5392 57.3789C17.5462 56.4228 6.35499 45.3086 5.30512 31.37C5.25136 30.6632 5.2229 29.9468 5.2229 29.2242C5.2229 14.3547 16.743 2.1739 31.3589 1.07889C32.0673 1.0284 32.7819 1 33.5029 1C49.1245 1 61.7861 13.6352 61.7861 29.2242Z" fill="#5F259E" stroke="#1D1D1B" stroke-width="0.846693" stroke-miterlimit="10"/>
<path d="M15.9014 24.3644C29.9355 31.3858 30.5237 33.093 23.6521 52.3646C23.6237 52.4498 23.7723 52.5097 23.8102 52.4277C32.3863 33.8472 34.0022 33.0393 48.9596 37.7981C49.0577 37.8296 49.1051 37.716 49.0134 37.6687C34.9793 30.6474 34.3911 28.9401 41.2627 9.66856C41.2912 9.58335 41.1425 9.5234 41.1046 9.60544C32.5286 28.1859 30.9126 28.9938 15.9552 24.2351C15.8572 24.2035 15.8097 24.3171 15.9014 24.3644Z" fill="url(#paint0_radial_3048_1582)"/>
<path d="M17.6567 10.3092C22.672 12.8179 22.8839 13.4301 20.4268 20.3158C20.4174 20.3473 20.468 20.3662 20.4838 20.3378C23.548 13.6983 24.1267 13.408 29.4709 15.1089C29.5057 15.1215 29.5215 15.0805 29.4899 15.0647C24.4745 12.556 24.2627 11.9438 26.7197 5.05816C26.7292 5.02661 26.6786 5.00767 26.6628 5.03607C23.5986 11.6756 23.0199 11.9659 17.6757 10.265C17.6409 10.2524 17.6251 10.2934 17.6567 10.3092Z" fill="url(#paint1_radial_3048_1582)"/>
<path d="M32.592 45.9176C36.0357 47.6406 36.178 48.0571 34.4925 52.7874C34.4862 52.8095 34.521 52.8222 34.5305 52.8032C36.6334 48.2465 37.0318 48.0476 40.7 49.2152C40.7253 49.2215 40.7348 49.1963 40.7127 49.1837C37.269 47.4607 37.1267 47.0441 38.8121 42.317C38.8185 42.2949 38.7837 42.2823 38.7742 42.3012C36.6713 46.858 36.2729 47.0568 32.6046 45.8892C32.5793 45.8829 32.5699 45.9081 32.592 45.9207V45.9176Z" fill="url(#paint2_radial_3048_1582)"/>
<path d="M44.0932 27.5075C47.0815 29.0033 47.208 29.3662 45.7439 33.4717C45.7376 33.4906 45.7692 33.5032 45.7787 33.4843C47.6064 29.5271 47.9511 29.3535 51.1355 30.3665C51.1577 30.3728 51.1671 30.3476 51.1482 30.3381C48.1598 28.8423 48.0333 28.4794 49.4975 24.3739C49.5038 24.355 49.4722 24.3424 49.4627 24.3613C47.6349 28.3185 47.2902 28.492 44.1058 27.4791C44.0837 27.4728 44.0742 27.498 44.0932 27.5075Z" fill="url(#paint3_radial_3048_1582)"/>
<defs>
<radialGradient id="paint0_radial_3048_1582" cx="0" cy="0" r="1" gradientUnits="userSpaceOnUse" gradientTransform="translate(32.4558 31.0166) scale(19.2044 19.1643)">
<stop offset="0.22" stop-color="#00D100"/>
<stop offset="0.49" stop-color="#282927"/>
</radialGradient>
<radialGradient id="paint1_radial_3048_1582" cx="0" cy="0" r="1" gradientUnits="userSpaceOnUse" gradientTransform="translate(23.5733 12.6885) scale(6.86525 6.85093)">
<stop stop-color="#00D100"/>
<stop offset="0.49" stop-color="#282927"/>
</radialGradient>
<radialGradient id="paint2_radial_3048_1582" cx="0" cy="0" r="1" gradientUnits="userSpaceOnUse" gradientTransform="translate(36.6523 47.5491) scale(4.71176 4.70193)">
<stop stop-color="#00D100"/>
<stop offset="0.49" stop-color="#282927"/>
</radialGradient>
<radialGradient id="paint3_radial_3048_1582" cx="0" cy="0" r="1" gradientUnits="userSpaceOnUse" gradientTransform="translate(47.6223 28.9244) scale(4.09196 4.08342)">
<stop stop-color="#01D101"/>
<stop offset="0.49" stop-color="#282927"/>
</radialGradient>
</defs>
</svg>
