<svg width="63" height="62" viewBox="0 0 63 62" fill="none" xmlns="http://www.w3.org/2000/svg">
<path d="M43.4255 60.7965L43.3999 60.7997" stroke="#1D1D1B" stroke-width="0.846693" stroke-miterlimit="10"/>
<path d="M31.7248 57.3789C31.026 57.4326 30.3208 57.4578 29.6093 57.4578C14.7088 57.4578 2.49929 45.9617 1.40515 31.37H5.49078C6.54065 45.3085 17.7319 56.4227 31.7248 57.3789Z" fill="#1D1D1B" stroke="#1D1E1B" stroke-width="0.846693" stroke-miterlimit="10"/>
<path d="M57.8924 29.2336C57.8924 44.1125 46.3565 56.2997 31.7248 57.3789C17.7318 56.4228 6.54061 45.3085 5.49074 31.37H1.40511C1.35451 30.6663 1.32605 29.9531 1.32605 29.2336C1.32605 13.6478 13.9877 1.0126 29.6092 1.0126C30.2607 1.0126 30.9058 1.03469 31.5445 1.07887C46.2617 2.06975 57.8924 14.2979 57.8924 29.2336Z" fill="#00D100" stroke="#1D1D1B" stroke-width="0.846693" stroke-miterlimit="10"/>
<path d="M61.9718 29.2242C61.9718 44.81 49.3101 57.4484 33.6886 57.4484C33.0277 57.4484 32.3731 57.4263 31.7248 57.3789C17.7319 56.4228 6.54066 45.3086 5.49079 31.37C5.43703 30.6632 5.40857 29.9468 5.40857 29.2242C5.40857 14.3547 16.9287 2.1739 31.5446 1.07889C32.2529 1.0284 32.9676 1 33.6886 1C49.3101 1 61.9718 13.6352 61.9718 29.2242Z" fill="#00D100" stroke="#1D1D1B" stroke-width="0.846693" stroke-miterlimit="10"/>
<path d="M16.0875 24.3644C30.1215 31.3858 30.7097 33.093 23.8382 52.3646C23.8097 52.4498 23.9583 52.5097 23.9963 52.4277C32.5723 33.8472 34.1882 33.0393 49.1457 37.7981C49.2437 37.8296 49.2911 37.716 49.1994 37.6687C35.1653 30.6474 34.5772 28.9401 41.4487 9.66856C41.4772 9.58335 41.3286 9.5234 41.2906 9.60544C32.7146 28.1859 31.0987 28.9938 16.1412 24.2351C16.0432 24.2035 15.9958 24.3171 16.0875 24.3644Z" fill="url(#paint0_radial_3048_1618)"/>
<path d="M17.8425 10.3092C22.8578 12.8179 23.0697 13.4301 20.6126 20.3158C20.6032 20.3473 20.6537 20.3662 20.6696 20.3378C23.7338 13.6983 24.3125 13.408 29.6567 15.1089C29.6915 15.1215 29.7073 15.0805 29.6757 15.0647C24.6603 12.556 24.4485 11.9438 26.9055 5.05816C26.915 5.02661 26.8644 5.00767 26.8486 5.03607C23.7844 11.6756 23.2057 11.9659 17.8615 10.265C17.8267 10.2524 17.8109 10.2934 17.8425 10.3092Z" fill="url(#paint1_radial_3048_1618)"/>
<path d="M32.7778 45.9176C36.2215 47.6406 36.3638 48.0571 34.6783 52.7874C34.672 52.8095 34.7068 52.8222 34.7162 52.8032C36.8191 48.2465 37.2176 48.0476 40.8858 49.2152C40.9111 49.2215 40.9206 49.1963 40.8985 49.1837C37.4548 47.4607 37.3125 47.0441 38.9979 42.317C39.0043 42.2949 38.9695 42.2823 38.96 42.3012C36.8571 46.858 36.4587 47.0568 32.7904 45.8892C32.7651 45.8829 32.7557 45.9081 32.7778 45.9207V45.9176Z" fill="url(#paint2_radial_3048_1618)"/>
<path d="M44.279 27.5075C47.2673 29.0033 47.3938 29.3662 45.9297 33.4717C45.9233 33.4906 45.955 33.5032 45.9645 33.4843C47.7922 29.5271 48.1369 29.3535 51.3213 30.3665C51.3434 30.3728 51.3529 30.3476 51.334 30.3381C48.3456 28.8423 48.2191 28.4794 49.6833 24.3739C49.6896 24.355 49.658 24.3424 49.6485 24.3613C47.8207 28.3185 47.476 28.492 44.2916 27.4791C44.2695 27.4728 44.26 27.498 44.279 27.5075Z" fill="url(#paint3_radial_3048_1618)"/>
<defs>
<radialGradient id="paint0_radial_3048_1618" cx="0" cy="0" r="1" gradientUnits="userSpaceOnUse" gradientTransform="translate(32.6419 31.0166) scale(19.2044 19.1643)">
<stop stop-color="#7C00A3"/>
<stop offset="0.06" stop-color="#78029E"/>
<stop offset="0.13" stop-color="#6E0A92"/>
<stop offset="0.19" stop-color="#5D177E"/>
<stop offset="0.22" stop-color="#551E74"/>
<stop offset="0.49" stop-color="#282927"/>
</radialGradient>
<radialGradient id="paint1_radial_3048_1618" cx="0" cy="0" r="1" gradientUnits="userSpaceOnUse" gradientTransform="translate(23.7591 12.6885) scale(6.86525 6.85093)">
<stop stop-color="#7C00A3"/>
<stop offset="0.06" stop-color="#78029E"/>
<stop offset="0.13" stop-color="#6E0A92"/>
<stop offset="0.19" stop-color="#5D177E"/>
<stop offset="0.22" stop-color="#551E74"/>
<stop offset="0.49" stop-color="#282927"/>
</radialGradient>
<radialGradient id="paint2_radial_3048_1618" cx="0" cy="0" r="1" gradientUnits="userSpaceOnUse" gradientTransform="translate(36.8381 47.5491) scale(4.71176 4.70193)">
<stop stop-color="#7C00A3"/>
<stop offset="0.06" stop-color="#78029E"/>
<stop offset="0.13" stop-color="#6E0A92"/>
<stop offset="0.19" stop-color="#5D177E"/>
<stop offset="0.22" stop-color="#551E74"/>
<stop offset="0.49" stop-color="#282927"/>
</radialGradient>
<radialGradient id="paint3_radial_3048_1618" cx="0" cy="0" r="1" gradientUnits="userSpaceOnUse" gradientTransform="translate(47.808 28.9244) scale(4.09196 4.08342)">
<stop stop-color="#7C00A3"/>
<stop offset="0.06" stop-color="#78029E"/>
<stop offset="0.13" stop-color="#6E0A92"/>
<stop offset="0.19" stop-color="#5D177E"/>
<stop offset="0.22" stop-color="#551E74"/>
<stop offset="0.49" stop-color="#282927"/>
</radialGradient>
</defs>
</svg>
