<svg width="63" height="62" viewBox="0 0 63 62" fill="none" xmlns="http://www.w3.org/2000/svg">
<path d="M43.2861 60.7965L43.2605 60.7997" stroke="#1D1D1B" stroke-width="0.846693" stroke-miterlimit="10"/>
<path d="M31.5853 57.3789C30.8865 57.4326 30.1813 57.4578 29.4698 57.4578C14.5692 57.4578 2.35976 45.9617 1.26562 31.37H5.35126C6.40112 45.3085 17.5923 56.4227 31.5853 57.3789Z" fill="#1D1D1B" stroke="#1D1E1B" stroke-width="0.846693" stroke-miterlimit="10"/>
<path d="M57.7532 29.2336C57.7532 44.1125 46.2173 56.2997 31.5855 57.3789C17.5925 56.4228 6.40132 45.3085 5.35146 31.37H1.26582C1.21523 30.6663 1.18677 29.9531 1.18677 29.2336C1.18677 13.6478 13.8484 1.0126 29.47 1.0126C30.1214 1.0126 30.7665 1.03469 31.4053 1.07887C46.1224 2.06975 57.7532 14.2979 57.7532 29.2336Z" fill="#00D100" stroke="#1D1D1B" stroke-width="0.846693" stroke-miterlimit="10"/>
<path d="M61.8325 29.2242C61.8325 44.81 49.1708 57.4484 33.5493 57.4484C32.8884 57.4484 32.2338 57.4263 31.5856 57.3789C17.5926 56.4228 6.40137 45.3086 5.35151 31.37C5.29775 30.6632 5.26929 29.9468 5.26929 29.2242C5.26929 14.3547 16.7894 2.1739 31.4053 1.07889C32.1137 1.0284 32.8283 1 33.5493 1C49.1708 1 61.8325 13.6352 61.8325 29.2242Z" fill="#00D100" stroke="#1D1D1B" stroke-width="0.846693" stroke-miterlimit="10"/>
<path d="M15.9481 24.3644C29.9821 31.3858 30.5703 33.093 23.6987 52.3646C23.6703 52.4498 23.8189 52.5097 23.8569 52.4277C32.4329 33.8472 34.0488 33.0393 49.0063 37.7981C49.1043 37.8296 49.1517 37.716 49.06 37.6687C35.0259 30.6474 34.4378 28.9401 41.3093 9.66856C41.3378 9.58335 41.1892 9.5234 41.1512 9.60544C32.5752 28.1859 30.9593 28.9938 16.0018 24.2351C15.9038 24.2035 15.8564 24.3171 15.9481 24.3644Z" fill="url(#paint0_radial_3048_1591)"/>
<path d="M17.7031 10.3092C22.7184 12.8179 22.9303 13.4301 20.4732 20.3158C20.4637 20.3473 20.5143 20.3662 20.5302 20.3378C23.5944 13.6983 24.1731 13.408 29.5173 15.1089C29.5521 15.1215 29.5679 15.0805 29.5363 15.0647C24.5209 12.556 24.309 11.9438 26.7661 5.05816C26.7756 5.02661 26.725 5.00767 26.7092 5.03607C23.645 11.6756 23.0663 11.9659 17.7221 10.265C17.6873 10.2524 17.6715 10.2934 17.7031 10.3092Z" fill="url(#paint1_radial_3048_1591)"/>
<path d="M32.6384 45.9176C36.0821 47.6406 36.2244 48.0571 34.5389 52.7874C34.5326 52.8095 34.5674 52.8222 34.5768 52.8032C36.6797 48.2465 37.0782 48.0476 40.7464 49.2152C40.7717 49.2215 40.7812 49.1963 40.7591 49.1837C37.3154 47.4607 37.1731 47.0441 38.8585 42.317C38.8649 42.2949 38.8301 42.2823 38.8206 42.3012C36.7177 46.858 36.3192 47.0568 32.651 45.8892C32.6257 45.8829 32.6162 45.9081 32.6384 45.9207V45.9176Z" fill="url(#paint2_radial_3048_1591)"/>
<path d="M44.1398 27.5075C47.1281 29.0033 47.2546 29.3662 45.7905 33.4717C45.7842 33.4906 45.8158 33.5032 45.8253 33.4843C47.6531 29.5271 47.9978 29.3535 51.1822 30.3665C51.2043 30.3728 51.2138 30.3476 51.1948 30.3381C48.2065 28.8423 48.08 28.4794 49.5441 24.3739C49.5504 24.355 49.5188 24.3424 49.5093 24.3613C47.6815 28.3185 47.3368 28.492 44.1525 27.4791C44.1303 27.4728 44.1208 27.498 44.1398 27.5075Z" fill="url(#paint3_radial_3048_1591)"/>
<defs>
<radialGradient id="paint0_radial_3048_1591" cx="0" cy="0" r="1" gradientUnits="userSpaceOnUse" gradientTransform="translate(32.5025 31.0166) scale(19.2044 19.1643)">
<stop stop-color="#7C00A3"/>
<stop offset="0.06" stop-color="#78029E"/>
<stop offset="0.13" stop-color="#6E0A92"/>
<stop offset="0.19" stop-color="#5D177E"/>
<stop offset="0.22" stop-color="#551E74"/>
<stop offset="0.49" stop-color="#282927"/>
</radialGradient>
<radialGradient id="paint1_radial_3048_1591" cx="0" cy="0" r="1" gradientUnits="userSpaceOnUse" gradientTransform="translate(23.6197 12.6885) scale(6.86525 6.85093)">
<stop stop-color="#7C00A3"/>
<stop offset="0.06" stop-color="#78029E"/>
<stop offset="0.13" stop-color="#6E0A92"/>
<stop offset="0.19" stop-color="#5D177E"/>
<stop offset="0.22" stop-color="#551E74"/>
<stop offset="0.49" stop-color="#282927"/>
</radialGradient>
<radialGradient id="paint2_radial_3048_1591" cx="0" cy="0" r="1" gradientUnits="userSpaceOnUse" gradientTransform="translate(36.6987 47.5491) scale(4.71176 4.70193)">
<stop stop-color="#7C00A3"/>
<stop offset="0.06" stop-color="#78029E"/>
<stop offset="0.13" stop-color="#6E0A92"/>
<stop offset="0.19" stop-color="#5D177E"/>
<stop offset="0.22" stop-color="#551E74"/>
<stop offset="0.49" stop-color="#282927"/>
</radialGradient>
<radialGradient id="paint3_radial_3048_1591" cx="0" cy="0" r="1" gradientUnits="userSpaceOnUse" gradientTransform="translate(47.6689 28.9244) scale(4.09196 4.08342)">
<stop stop-color="#7C00A3"/>
<stop offset="0.06" stop-color="#78029E"/>
<stop offset="0.13" stop-color="#6E0A92"/>
<stop offset="0.19" stop-color="#5D177E"/>
<stop offset="0.22" stop-color="#551E74"/>
<stop offset="0.49" stop-color="#282927"/>
</radialGradient>
</defs>
</svg>
