<svg width="63" height="62" viewBox="0 0 63 62" fill="none" xmlns="http://www.w3.org/2000/svg">
<path d="M43.3325 60.7965L43.3069 60.7997" stroke="#1D1D1B" stroke-width="0.846693" stroke-miterlimit="10"/>
<path d="M31.6317 57.3789C30.9328 57.4326 30.2277 57.4578 29.5162 57.4578C14.6156 57.4578 2.40615 45.9617 1.31201 31.37H5.39764C6.44751 45.3085 17.6387 56.4227 31.6317 57.3789Z" fill="#1D1D1B" stroke="#1D1E1B" stroke-width="0.846693" stroke-miterlimit="10"/>
<path d="M57.7995 29.2336C57.7995 44.1125 46.2636 56.2997 31.6319 57.3789C17.6389 56.4228 6.44771 45.3085 5.39784 31.37H1.31221C1.26161 30.6663 1.23315 29.9531 1.23315 29.2336C1.23315 13.6478 13.8948 1.0126 29.5164 1.0126C30.1678 1.0126 30.8129 1.03469 31.4516 1.07887C46.1688 2.06975 57.7995 14.2979 57.7995 29.2336Z" fill="#00D100" stroke="#1D1D1B" stroke-width="0.846693" stroke-miterlimit="10"/>
<path d="M61.8789 29.2242C61.8789 44.81 49.2172 57.4484 33.5957 57.4484C32.9348 57.4484 32.2802 57.4263 31.6319 57.3789C17.639 56.4228 6.44776 45.3086 5.39789 31.37C5.34413 30.6632 5.31567 29.9468 5.31567 29.2242C5.31567 14.3547 16.8358 2.1739 31.4517 1.07889C32.16 1.0284 32.8747 1 33.5957 1C49.2172 1 61.8789 13.6352 61.8789 29.2242Z" fill="#00D100" stroke="#1D1D1B" stroke-width="0.846693" stroke-miterlimit="10"/>
<path d="M15.9945 24.3644C30.0285 31.3858 30.6167 33.093 23.7451 52.3646C23.7167 52.4498 23.8653 52.5097 23.9032 52.4277C32.4793 33.8472 34.0952 33.0393 49.0526 37.7981C49.1507 37.8296 49.1981 37.716 49.1064 37.6687C35.0723 30.6474 34.4841 28.9401 41.3557 9.66856C41.3842 9.58335 41.2356 9.5234 41.1976 9.60544C32.6216 28.1859 31.0057 28.9938 16.0482 24.2351C15.9502 24.2035 15.9027 24.3171 15.9945 24.3644Z" fill="url(#paint0_radial_3048_1600)"/>
<path d="M17.7495 10.3092C22.7648 12.8179 22.9767 13.4301 20.5196 20.3158C20.5101 20.3473 20.5607 20.3662 20.5765 20.3378C23.6408 13.6983 24.2195 13.408 29.5637 15.1089C29.5984 15.1215 29.6143 15.0805 29.5826 15.0647C24.5673 12.556 24.3554 11.9438 26.8125 5.05816C26.822 5.02661 26.7714 5.00767 26.7556 5.03607C23.6914 11.6756 23.1127 11.9659 17.7685 10.265C17.7337 10.2524 17.7179 10.2934 17.7495 10.3092Z" fill="url(#paint1_radial_3048_1600)"/>
<path d="M32.6848 45.9176C36.1285 47.6406 36.2708 48.0571 34.5853 52.7874C34.579 52.8095 34.6137 52.8222 34.6232 52.8032C36.7261 48.2465 37.1246 48.0476 40.7928 49.2152C40.8181 49.2215 40.8276 49.1963 40.8054 49.1837C37.3617 47.4607 37.2194 47.0441 38.9049 42.317C38.9112 42.2949 38.8765 42.2823 38.867 42.3012C36.7641 46.858 36.3656 47.0568 32.6974 45.8892C32.6721 45.8829 32.6626 45.9081 32.6848 45.9207V45.9176Z" fill="url(#paint2_radial_3048_1600)"/>
<path d="M44.1862 27.5075C47.1745 29.0033 47.301 29.3662 45.8369 33.4717C45.8306 33.4906 45.8622 33.5032 45.8717 33.4843C47.6995 29.5271 48.0441 29.3535 51.2285 30.3665C51.2507 30.3728 51.2602 30.3476 51.2412 30.3381C48.2529 28.8423 48.1264 28.4794 49.5905 24.3739C49.5968 24.355 49.5652 24.3424 49.5557 24.3613C47.7279 28.3185 47.3832 28.492 44.1988 27.4791C44.1767 27.4728 44.1672 27.498 44.1862 27.5075Z" fill="url(#paint3_radial_3048_1600)"/>
<defs>
<radialGradient id="paint0_radial_3048_1600" cx="0" cy="0" r="1" gradientUnits="userSpaceOnUse" gradientTransform="translate(32.5488 31.0166) scale(19.2044 19.1643)">
<stop stop-color="#7C00A3"/>
<stop offset="0.06" stop-color="#78029E"/>
<stop offset="0.13" stop-color="#6E0A92"/>
<stop offset="0.19" stop-color="#5D177E"/>
<stop offset="0.22" stop-color="#551E74"/>
<stop offset="0.49" stop-color="#282927"/>
</radialGradient>
<radialGradient id="paint1_radial_3048_1600" cx="0" cy="0" r="1" gradientUnits="userSpaceOnUse" gradientTransform="translate(23.6661 12.6885) scale(6.86525 6.85093)">
<stop stop-color="#7C00A3"/>
<stop offset="0.06" stop-color="#78029E"/>
<stop offset="0.13" stop-color="#6E0A92"/>
<stop offset="0.19" stop-color="#5D177E"/>
<stop offset="0.22" stop-color="#551E74"/>
<stop offset="0.49" stop-color="#282927"/>
</radialGradient>
<radialGradient id="paint2_radial_3048_1600" cx="0" cy="0" r="1" gradientUnits="userSpaceOnUse" gradientTransform="translate(36.7451 47.5491) scale(4.71176 4.70193)">
<stop stop-color="#7C00A3"/>
<stop offset="0.06" stop-color="#78029E"/>
<stop offset="0.13" stop-color="#6E0A92"/>
<stop offset="0.19" stop-color="#5D177E"/>
<stop offset="0.22" stop-color="#551E74"/>
<stop offset="0.49" stop-color="#282927"/>
</radialGradient>
<radialGradient id="paint3_radial_3048_1600" cx="0" cy="0" r="1" gradientUnits="userSpaceOnUse" gradientTransform="translate(47.7153 28.9244) scale(4.09196 4.08342)">
<stop stop-color="#7C00A3"/>
<stop offset="0.06" stop-color="#78029E"/>
<stop offset="0.13" stop-color="#6E0A92"/>
<stop offset="0.19" stop-color="#5D177E"/>
<stop offset="0.22" stop-color="#551E74"/>
<stop offset="0.49" stop-color="#282927"/>
</radialGradient>
</defs>
</svg>
