<svg width="108" height="117" viewBox="0 0 108 117" fill="none" xmlns="http://www.w3.org/2000/svg">
<path d="M98.8589 116.625C97.4448 116.153 96.392 115.138 95.3702 114.03C87.9189 105.978 80.4558 97.9387 72.9617 89.9367C71.3106 88.1734 70.4249 86.2721 71.1863 83.7483C71.2524 83.5268 71.1552 83.134 70.9998 82.9627C68.6417 80.3804 66.2641 77.8189 63.8632 75.224C54.0808 83.368 43.168 86.4058 31.0857 83.7316C21.4627 81.6005 13.6733 76.1308 7.80314 67.6567C-4.12759 50.4285 -2.01417 26.4938 12.6516 11.8396C27.0997 -2.60151 49.5199 -3.04443 64.4614 10.6946C79.9974 24.9769 83.2686 50.6374 69.4692 69.1651C69.5585 69.2905 69.6479 69.4451 69.7644 69.5705C71.9672 71.9481 74.1622 74.3382 76.4038 76.6824C76.6563 76.9456 77.2041 77.1086 77.546 77.0208C79.4924 76.5027 81.1629 76.9749 82.5693 78.4875C90.4868 86.995 98.416 95.4942 106.295 104.048C107.002 104.817 107.383 105.932 107.919 106.889V108.928C106.372 112.401 103.987 114.97 100.759 116.629H98.8628L98.8589 116.625ZM3.46752 42.5728C3.41313 63.7163 19.4269 81.0113 39.0887 81.0489C58.7389 81.0865 74.811 63.8417 74.8343 42.694C74.8576 21.5965 58.9098 4.38503 39.2519 4.28893C19.6095 4.19282 3.51802 21.4126 3.46363 42.577L3.46752 42.5728ZM99.803 113.174C100.285 112.852 100.739 112.643 101.077 112.3C102.048 111.318 102.985 110.295 103.913 109.263C104.787 108.289 104.783 107.499 103.874 106.521C96.0151 98.0557 88.1481 89.5941 80.2771 81.1409C79.3758 80.1756 78.6338 80.1798 77.7286 81.1242C76.769 82.1228 75.825 83.134 74.9003 84.1661C74.0301 85.1356 74.034 85.9337 74.9392 86.9073C82.7985 95.373 90.6655 103.835 98.5442 112.279C98.8745 112.63 99.3329 112.844 99.8068 113.174H99.803ZM74.2826 79.7536C71.8196 77.0919 69.4808 74.5638 67.045 71.9272C66.8235 72.1653 66.5865 72.4286 66.4661 72.5581C68.9175 75.199 71.2757 77.7437 73.7154 80.372C73.8514 80.2216 74.0651 79.9876 74.2826 79.7536Z" fill="black"/>
<path d="M3.46753 42.5729C3.52192 21.4085 19.6134 4.19286 39.2558 4.28479C58.9137 4.3809 74.8615 21.5924 74.8382 42.6899C74.8149 63.8375 58.7428 81.0824 39.0926 81.0448C19.4308 81.0072 3.41702 63.7164 3.47141 42.5687L3.46753 42.5729ZM5.56152 42.5645C5.51491 62.5087 20.5497 78.7591 39.0849 78.8009C57.6045 78.8427 72.7209 62.6299 72.7481 42.7024C72.7753 22.8209 57.7716 6.61642 39.2636 6.53703C20.7245 6.46182 5.60814 22.6203 5.56152 42.5645Z" fill="#5F259E"/>
<path d="M99.8034 113.174C99.3295 112.844 98.8711 112.635 98.5408 112.28C90.6621 103.831 82.799 95.3731 74.9358 86.9074C74.0306 85.9338 74.0267 85.1357 74.8969 84.1663C75.8216 83.1342 76.7695 82.1229 77.7252 81.1243C78.6304 80.1841 79.3724 80.1757 80.2737 81.141C88.1447 89.5942 96.0117 98.0558 103.871 106.522C104.78 107.503 104.784 108.289 103.91 109.263C102.985 110.295 102.045 111.318 101.074 112.3C100.736 112.643 100.281 112.852 99.7996 113.174H99.8034Z" fill="#5F259E"/>
<path d="M74.2829 79.7537C74.0653 79.9919 73.8516 80.2259 73.7157 80.3721C71.2759 77.7438 68.9177 75.1991 66.4663 72.5582C66.5867 72.4287 66.8237 72.1654 67.0452 71.9272C69.481 74.5597 71.8198 77.0919 74.2829 79.7537Z" fill="#5F259E"/>
<path d="M5.55797 42.5645C5.60459 22.6203 20.721 6.46179 39.26 6.537C57.7641 6.61222 72.7678 22.8208 72.7445 42.7024C72.7173 62.6299 57.6009 78.8427 39.0813 78.8009C20.5462 78.7591 5.51135 62.5087 5.55797 42.5645ZM8.92623 42.6397C8.91846 60.5532 22.4265 75.1363 39.0697 75.1781C55.7478 75.2199 69.3568 60.6284 69.3763 42.6857C69.3918 24.7889 55.8682 10.2016 39.2212 10.1598C22.5197 10.118 8.93789 24.6803 8.93012 42.6397H8.92623Z" fill="black"/>
<path d="M8.92991 42.6355C8.93768 24.6761 22.5195 10.118 39.221 10.1556C55.868 10.1974 69.3955 24.7847 69.3761 42.6814C69.3605 60.6242 55.7476 75.2157 39.0695 75.1739C22.4263 75.1321 8.91826 60.5489 8.92603 42.6355H8.92991ZM40.8216 28.0649C44.0655 28.8212 45.8953 31.0024 46.2217 34.316C46.3343 35.44 47.0725 36.2047 48.001 36.142C48.9412 36.0793 49.6793 35.2603 49.555 34.1238C49.4229 32.9036 49.2325 31.6334 48.778 30.526C47.3988 27.179 44.8425 25.3154 41.5947 24.5047C40.9692 24.3501 40.7866 24.0911 40.8138 23.4601C40.8488 22.6328 40.8449 21.797 40.806 20.9697C40.7555 19.8498 40.1223 19.1269 39.2132 19.081C38.2769 19.035 37.5427 19.7872 37.4727 20.9363C37.4222 21.8012 37.43 22.6704 37.4611 23.5395C37.4805 24.137 37.2319 24.2833 36.7268 24.5131C35.1262 25.2318 33.3896 25.8419 32.0688 26.9826C26.9678 31.391 27.7293 39.8484 33.3896 42.7232C34.3648 43.2163 35.4137 43.5882 36.4665 43.8473C37.228 44.0353 37.4844 44.3487 37.4727 45.1969C37.43 48.8574 37.4572 52.5178 37.4533 56.1782C37.4533 56.5292 37.4067 56.876 37.3795 57.2395C34.2171 56.4749 32.3873 54.3104 32.0882 51.0929C31.9755 49.8936 31.2257 49.0997 30.2739 49.1791C29.3299 49.2585 28.7316 50.0482 28.7277 51.2266C28.7122 54.9873 31.2335 58.677 34.9242 60.2314C35.7284 60.5698 36.5714 60.7997 37.4805 61.1131C37.4805 62.2496 37.43 63.382 37.4961 64.506C37.5621 65.5966 38.3041 66.2777 39.2249 66.2318C40.1106 66.1858 40.7439 65.5131 40.806 64.4601C40.8527 63.6327 40.8721 62.797 40.8177 61.9697C40.7672 61.2175 41.0275 60.9543 41.7112 60.7913C44.2986 60.1603 46.4043 58.7104 47.9971 56.3829C50.635 52.5261 50.5651 44.5994 43.9373 42.1424C43.2769 41.8959 42.6125 41.6076 41.9288 41.4947C41.078 41.3568 40.7944 40.9808 40.8099 40.0239C40.8721 36.4387 40.8332 32.8535 40.8332 29.2683C40.8332 28.9006 40.8332 28.537 40.8332 28.0649H40.8216ZM12.0573 48.9159C12.069 49.0746 12.0651 49.1916 12.0845 49.3003C12.1234 49.5217 12.1739 49.7432 12.2244 49.9605C13.8599 56.7882 17.3331 62.3039 22.5273 66.5661C24.8855 68.5007 27.4884 69.9632 30.3089 70.9703C31.2646 71.3129 32.1698 70.8867 32.5 70.0008C32.8574 69.0439 32.4573 68.0787 31.4899 67.5982C31.2685 67.4895 31.0354 67.3976 30.8061 67.3015C24.0463 64.5562 19.2872 59.5712 16.5134 52.4091C16.0161 51.1263 15.7169 49.7599 15.2974 48.4437C14.9943 47.4951 14.3456 47.0439 13.4209 47.2194C12.5507 47.3823 12.1 48.0008 12.0534 48.9117L12.0573 48.9159ZM37.531 68.8267C37.531 68.8267 37.531 68.8434 37.531 68.8559C37.0804 68.8099 36.6258 68.7473 36.1752 68.718C35.1262 68.6512 34.3376 69.3114 34.2327 70.3226C34.1356 71.2836 34.73 72.1319 35.7362 72.2656C36.8434 72.4119 37.9661 72.4787 39.0811 72.4954C40.0718 72.5121 40.7128 71.8603 40.7944 70.9034C40.8799 69.8797 40.3243 69.1024 39.3142 68.9395C38.7276 68.8476 38.1293 68.8643 37.5349 68.8308L37.531 68.8267Z" fill="#00D100"/>
<path d="M40.8217 28.065C40.8217 28.533 40.8217 28.9007 40.8217 29.2684C40.8217 32.8536 40.8567 36.4388 40.7984 40.024C40.7829 40.9851 41.0626 41.357 41.9173 41.4949C42.6011 41.6077 43.2654 41.896 43.9258 42.1425C50.5536 44.6037 50.6235 52.5304 47.9856 56.383C46.3928 58.7105 44.2871 60.1604 41.6997 60.7914C41.0199 60.9586 40.7557 61.2176 40.8062 61.9698C40.8606 62.7971 40.845 63.6328 40.7945 64.4602C40.7324 65.5132 40.0991 66.1859 39.2134 66.2319C38.2926 66.2779 37.5467 65.5967 37.4846 64.5061C37.4185 63.3821 37.469 62.2497 37.469 61.1132C36.5599 60.8039 35.7169 60.5699 34.9127 60.2315C31.222 58.6771 28.7007 54.9874 28.7162 51.2267C28.7201 50.0484 29.3184 49.2586 30.2624 49.1792C31.2142 49.0998 31.964 49.8896 32.0767 51.093C32.3758 54.3063 34.2095 56.475 37.368 57.2396C37.3952 56.8761 37.4418 56.5251 37.4418 56.1783C37.4457 52.5179 37.4224 48.8575 37.4612 45.1971C37.4729 44.3488 37.2165 44.0354 36.455 43.8474C35.4022 43.5883 34.3533 43.2164 33.3781 42.7233C27.7178 39.8485 26.9563 31.3911 32.0573 26.9827C33.3781 25.842 35.1147 25.2319 36.7153 24.5132C37.2204 24.2876 37.469 24.1371 37.4496 23.5396C37.4224 22.6747 37.4107 21.8013 37.4612 20.9364C37.5273 19.7873 38.2654 19.0351 39.2017 19.0811C40.1108 19.1271 40.744 19.8458 40.7945 20.9698C40.8334 21.7972 40.8334 22.6329 40.8023 23.4602C40.7751 24.0912 40.9577 24.3503 41.5832 24.5049C44.8271 25.3155 47.3873 27.1791 48.7665 30.5262C49.221 31.6335 49.4114 32.9038 49.5435 34.1239C49.6678 35.2605 48.9297 36.0794 47.9895 36.1421C47.0649 36.2048 46.3228 35.4443 46.2102 34.3161C45.8838 31.0025 44.054 28.8171 40.8101 28.065H40.8217ZM40.9033 45.1135V57.2187C44.2677 56.5376 46.4005 53.7129 46.2024 50.2823C46.0315 47.349 43.953 45.3015 40.9033 45.1177V45.1135ZM37.3913 40.2747V28.1318C34.4077 28.5789 32.1039 31.3159 32.0883 34.3662C32.0728 37.7676 33.7239 39.6438 37.3913 40.2747Z" fill="black"/>
<path d="M12.0576 48.916C12.1042 48.0092 12.5588 47.3866 13.4251 47.2236C14.3459 47.0481 14.9985 47.5036 15.3016 48.448C15.7211 49.7642 16.0203 51.1306 16.5176 52.4134C19.2914 59.5755 24.0505 64.5605 30.8103 67.3058C31.0395 67.3977 31.2688 67.4896 31.4941 67.6025C32.4576 68.083 32.8616 69.0441 32.5042 70.0051C32.174 70.891 31.2688 71.313 30.3131 70.9745C27.4965 69.9675 24.8897 68.505 22.5315 66.5704C17.3373 62.304 13.8602 56.7925 12.2286 49.9648C12.1781 49.7475 12.1275 49.526 12.0887 49.3046C12.0693 49.1959 12.0732 49.0789 12.0615 48.9201L12.0576 48.916Z" fill="black"/>
<path d="M37.5313 68.831C38.1257 68.8644 38.724 68.8477 39.3106 68.9396C40.3168 69.1026 40.8763 69.8798 40.7908 70.9035C40.7092 71.8604 40.0682 72.5123 39.0775 72.4956C37.9625 72.4788 36.8398 72.412 35.7326 72.2657C34.7264 72.132 34.132 71.2838 34.2291 70.3227C34.334 69.3115 35.1226 68.6513 36.1716 68.7181C36.6261 68.7474 37.0768 68.8101 37.5274 68.856C37.5274 68.8477 37.5274 68.8393 37.5274 68.8268L37.5313 68.831Z" fill="black"/>
<path d="M40.9033 45.1134C43.953 45.2973 46.0315 47.3448 46.2024 50.2781C46.4005 53.7087 44.2716 56.5376 40.9033 57.2145V45.1093V45.1134Z" fill="#00D100"/>
<path d="M37.3913 40.2746C33.72 39.6478 32.0689 37.7716 32.0883 34.3661C32.1038 31.3158 34.4076 28.5788 37.3913 28.1317V40.2746Z" fill="#00D100"/>
</svg>
