<svg width="178" height="160" viewBox="0 0 178 160" fill="none" xmlns="http://www.w3.org/2000/svg">
<path d="M48.942 159.566C47.0555 158.448 46.5437 156.767 46.5583 154.633C46.6241 142.077 46.5875 129.521 46.5875 116.964C46.5875 116.285 46.5875 115.598 46.5875 114.684C44.1672 114.684 41.8858 114.684 39.5972 114.684C38.2152 114.684 36.8332 114.713 35.4512 114.677C33.3088 114.618 31.8756 113.252 31.861 111.293C31.839 109.334 33.2283 107.894 35.3781 107.799C37.2792 107.719 39.1804 107.777 41.0815 107.77C42.851 107.77 44.6279 107.77 46.4925 107.77V52.3856C43.2166 52.3856 40.0066 52.3856 36.7966 52.3856C36.1093 52.3856 35.4 52.4148 34.7273 52.2906C32.8408 51.9398 31.7074 50.4196 31.8756 48.5705C32.0364 46.8091 33.3453 45.5374 35.2318 45.5082C38.9171 45.457 42.5951 45.4936 46.5875 45.4936C46.5875 44.7335 46.5875 44.0757 46.5875 43.4179C46.5875 30.7448 46.5875 18.079 46.5875 5.40591C46.5875 1.65659 47.6551 0.596846 51.4428 0.596846C81.4663 0.589537 111.497 0.604154 141.521 0.560303C143.458 0.560303 144.891 1.14499 146.251 2.5117C155.911 12.2468 165.629 21.916 175.324 31.6146C176.004 32.2943 176.611 33.047 177.247 33.7633V159.559H48.942V159.566ZM53.5852 107.829C54.7478 107.829 55.735 107.719 56.6929 107.851C58.6013 108.106 59.7859 109.605 59.6981 111.446C59.6104 113.274 58.2576 114.574 56.3053 114.662C55.4132 114.706 54.5212 114.662 53.6291 114.662V152.543H170.213V38.4115C169.409 38.4115 168.729 38.4115 168.042 38.4115C160.086 38.4115 152.138 38.4115 144.182 38.4115C140.482 38.4115 139.429 37.3664 139.422 33.7121C139.422 25.7092 139.422 17.699 139.422 9.69605C139.422 9.01635 139.422 8.34396 139.422 7.64234H53.6364V45.4351C56.2176 45.5447 59.391 44.9381 59.6104 48.5778C59.8663 52.7949 56.3346 52.2979 53.5852 52.4733V107.829ZM146.471 31.3368H164.415C158.485 25.4095 152.386 19.3142 146.471 13.4088V31.3368Z" fill="black"/>
<path d="M14.2095 61.0462C17.5439 61.0462 20.8855 61.0316 24.2198 61.0462C26.6621 61.0609 28.1464 62.3399 28.1903 64.4082C28.2342 66.5277 26.684 67.9383 24.1979 67.9456C17.5219 67.9602 10.846 67.9602 4.17002 67.9456C1.8009 67.9456 0.228802 66.5715 0.184929 64.5617C0.133744 62.4641 1.70585 61.0609 4.18465 61.0462C7.51897 61.0243 10.8606 61.0462 14.1949 61.0462H14.2095Z" fill="black"/>
<path d="M14.1145 99.1095C10.7802 99.1095 7.43855 99.1314 4.10424 99.1095C1.72049 99.0875 0.192261 97.7135 0.192261 95.6598C0.192261 93.6426 1.76436 92.2102 4.10424 92.2028C10.8387 92.1809 17.5731 92.1809 24.3003 92.2028C26.6694 92.2102 28.1976 93.6061 28.1903 95.6598C28.1903 97.7355 26.6986 99.0802 24.2929 99.0949C20.9001 99.1168 17.5 99.0949 14.1072 99.0949L14.1145 99.1095Z" fill="black"/>
<path d="M24.5562 83.5348C21.273 83.5348 17.9899 83.5494 14.7068 83.5348C12.2938 83.5202 10.8094 82.1973 10.7875 80.1217C10.7655 78.0241 12.2426 76.6428 14.6336 76.6355C21.3681 76.6135 28.1098 76.6135 34.8443 76.6355C37.2207 76.6428 38.7051 78.0387 38.6758 80.1363C38.6466 82.2119 37.1549 83.5202 34.7419 83.5348C31.3418 83.5567 27.949 83.5348 24.5488 83.5348H24.5562Z" fill="black"/>
<path d="M112.126 45.4131C125.141 45.4131 138.157 45.4131 151.172 45.4131C153.629 45.4131 155.114 46.6629 155.165 48.7313C155.216 50.8288 153.805 52.1736 151.385 52.3052C150.865 52.3344 150.346 52.3344 149.827 52.3344C140.212 52.3636 130.589 52.3856 120.974 52.4075C104.96 52.444 88.9538 52.4806 72.9403 52.5244C70.4615 52.5244 69.0064 51.5451 68.692 49.6302C68.4288 48.0004 69.4159 46.2902 71.0245 45.8736C71.9532 45.6324 72.9623 45.6105 73.9348 45.6105C81.2469 45.5739 88.5663 45.552 95.8784 45.5447C101.289 45.5374 106.708 45.5447 112.119 45.5447C112.119 45.5009 112.119 45.457 112.119 45.4131H112.126Z" fill="black"/>
<path d="M112.06 92.0712C125.017 92.0712 137.974 92.0712 150.939 92.0712C154.002 92.0712 155.808 94.0153 155.055 96.5295C154.58 98.1154 153.235 98.9632 150.939 98.9779C143.568 99.029 136.197 99.0436 128.827 99.0583C110.166 99.1021 91.5058 99.146 72.8453 99.1898C70.2788 99.1898 68.7213 97.94 68.6701 95.8425C68.6189 93.7157 70.191 92.2978 72.8453 92.2905C85.9193 92.2613 98.9934 92.2759 112.067 92.2759C112.067 92.2101 112.067 92.137 112.067 92.0712H112.06Z" fill="black"/>
<path d="M119.511 68.026C109.091 68.026 98.6643 68.0114 88.2445 68.0406C86.7529 68.0406 85.5098 67.6825 84.7128 66.345C83.3162 63.999 84.9395 61.2655 87.8643 61.1413C90.2188 61.0463 92.5879 61.1047 94.9497 61.0974C113.661 61.0536 132.38 61.0097 151.092 60.9659C153.651 60.9659 155.165 62.2449 155.172 64.379C155.172 66.5058 153.717 67.8506 151.129 67.8579C140.592 67.8944 130.055 67.8725 119.518 67.8725C119.518 67.9237 119.518 67.9748 119.518 68.026H119.511Z" fill="black"/>
<path d="M91.886 83.6372C85.3782 83.6372 78.8704 83.6518 72.3627 83.6299C70.1837 83.6226 68.7432 82.2778 68.6701 80.341C68.5969 78.4188 69.9789 76.979 72.1141 76.7598C72.5162 76.7159 72.9184 76.7159 73.3206 76.7159C83.053 76.6721 92.7854 76.6282 102.525 76.5844C105.465 76.5698 108.397 76.5405 111.336 76.5405C113.808 76.5405 115.292 77.7684 115.365 79.8294C115.438 81.9489 113.939 83.4033 111.417 83.4252C104.909 83.4764 98.4011 83.4398 91.8933 83.4398C91.8933 83.5056 91.8933 83.5714 91.8933 83.6372H91.886Z" fill="black"/>
<path d="M91.8641 114.735C85.4148 114.735 78.9655 114.743 72.5089 114.735C70.5273 114.735 69.255 113.88 68.809 112.265C68.3703 110.701 68.8529 109.356 70.2056 108.516C70.8929 108.084 71.8289 107.865 72.6552 107.858C85.6707 107.756 98.6862 107.69 111.709 107.646C113.881 107.646 115.314 109.005 115.365 110.957C115.424 113.018 113.969 114.494 111.57 114.523C105.004 114.582 98.4376 114.545 91.8714 114.545C91.8714 114.611 91.8714 114.684 91.8714 114.75L91.8641 114.735Z" fill="black"/>
<path d="M72.0628 68.0552C70.1544 68.0333 68.6627 66.535 68.6627 64.6494C68.6627 62.793 70.2129 61.2363 72.0702 61.2143C73.9932 61.1924 75.6092 62.8295 75.558 64.7444C75.5068 66.6373 73.9859 68.0771 72.0628 68.0552Z" fill="black"/>
</svg>
